<svg xmlns="http://www.w3.org/2000/svg" viewBox="0 0 683.45 304.13"><defs><style>.cls-1{fill:#063947;}.cls-2{fill:#1b1c1c;}.cls-3{fill:#131414;}.cls-4{fill:#f7d5bf;}.cls-5{fill:#edc7b2;}.cls-6{fill:#d3a794;}.cls-7{fill:#fff;}.cls-8{fill:#79464b;}.cls-9{fill:#d19d8f;}.cls-10{fill:#e5b7ac;}.cls-11{fill:#e2af47;}.cls-12{fill:#f7de72;}.cls-13{fill:#e29b47;}.cls-14{fill:#7c3d2c;}.cls-15{fill:#c7e5ea;}.cls-16{fill:#aad2d6;}.cls-17{fill:#6b4a4a;}.cls-18{fill:#5b4141;}.cls-19{fill:#5e4343;}.cls-20{fill:#383a3a;}.cls-21{fill:none;stroke:#383a3a;stroke-miterlimit:10;stroke-width:0.25px;}.cls-22{fill:#16422f;}.cls-23{fill:#205b40;}.cls-24{fill:#0e281c;}.cls-25{fill:#8c2a27;}.cls-26{fill:#964b33;}.cls-27{fill:#062c35;}.cls-28{fill:#041d21;}.cls-29{fill:#155b6b;}.cls-30{fill:#34757f;}.cls-31{fill:#c74535;}.cls-32{fill:#d47967;}.cls-33{fill:#01181e;}.cls-34{fill:#ad6c90;}.cls-35{fill:#bc7f9e;}.cls-36{fill:#89547b;}.cls-37{fill:#c99083;}.cls-38{fill:#00202b;}.cls-39{fill:#e5c645;}.cls-40{fill:#d36a35;}.cls-41{fill:#af502b;}.cls-42{fill:#164444;}.cls-43{fill:#133a39;}.cls-44{fill:#c45e31;}</style></defs><title>fashion-images</title><g id="Layer_2" data-name="Layer 2"><g id="OBJECTS"><path class="cls-1" d="M485.58,289a26.35,26.35,0,0,1-4.27,5,13.11,13.11,0,0,0-2.91,3.61,4.36,4.36,0,0,0,.18,4.43c1.06,1.41,3.09,1.69,4.83,1.38a16.45,16.45,0,0,0,5.1-2.09,56.1,56.1,0,0,0,6.55-4.37,9,9,0,0,0,3.4-4.1c.58-1.85,0-3.84-.58-5.69q-.78-2.42-1.62-4.82a1.32,1.32,0,0,0-.5-.77,1.38,1.38,0,0,0-.88,0c-1.77.32-5.81.25-7.16,1.5-.73.67-.56,1.8-.76,2.69A14.8,14.8,0,0,1,485.58,289Z"/><path class="cls-1" d="M542.05,287.65a26.6,26.6,0,0,0,4.26,5,13.41,13.41,0,0,1,2.91,3.61,4.38,4.38,0,0,1-.17,4.43c-1.07,1.41-3.1,1.7-4.84,1.38a16.62,16.62,0,0,1-5.1-2.08,55.15,55.15,0,0,1-6.54-4.37,9,9,0,0,1-3.41-4.1c-.58-1.85,0-3.85.59-5.69q.78-2.42,1.61-4.82a1.34,1.34,0,0,1,.5-.77,1.33,1.33,0,0,1,.88-.05c1.78.33,5.82.25,7.17,1.51.72.67.55,1.79.76,2.69A14.73,14.73,0,0,0,542.05,287.65Z"/><polygon class="cls-2" points="481.14 154.52 478.77 226.96 486.32 285.09 497.64 283.28 497.64 226.24 505.83 185.07 510.18 185.07 525.98 228.04 530.16 282.56 540.69 282.56 542.12 223.73 534.04 160.65 481.14 154.52"/><path class="cls-3" d="M534.05,160.65l-52.91-6.13-1.47,45.11c6-1.36,14.62-3.32,24.36-5.51l1.8-9.05h4.35l2.61,7.08,24.58-5.52Z"/><path class="cls-4" d="M513.62,62.2H496.18v7.89l-.82.57s.11,14.16,8.49,14.16,9.5-13.47,9.5-13.47l-.47-.15Z"/><path class="cls-5" d="M512.15,62.2H498.34l-2.16,1.22v6.67h0c3.12,2.66,8.35,5.51,16.39,5.55a26.74,26.74,0,0,0,.81-4.3l-.47-.15.66-8.05Z"/><path class="cls-4" d="M517.13,50.7a11.44,11.44,0,0,0-22.86-.7,11.31,11.31,0,0,0,.47,3.6h0s.75,9.85,3.3,12.69,7.09,2.77,7.09,2.77,4.39.2,7.07-2.48c2.43-2.42,4.24-12.31,4.24-12.31h0A11.38,11.38,0,0,0,517.13,50.7Z"/><path class="cls-4" d="M516.42,53.63s1-2.41,2.48-1.72,1.66,5.7-3.95,6.84Z"/><path class="cls-6" d="M516.37,57.48a.83.83,0,0,1-.16-.53,5.06,5.06,0,0,1,0-.55,7,7,0,0,1,.14-1.12,4.82,4.82,0,0,1,.36-1.07,2.13,2.13,0,0,1,.75-.88,1.43,1.43,0,0,1,1.16-.18,1.09,1.09,0,0,1,.76.87,1.28,1.28,0,0,1-.32,1.1,1.6,1.6,0,0,1-1,.5,1.37,1.37,0,0,0,1.12-1.56.92.92,0,0,0-.64-.69,1.21,1.21,0,0,0-1,.17,2.92,2.92,0,0,0-1.05,1.79,5.6,5.6,0,0,0-.2,1.07,5.11,5.11,0,0,0-.05.55A.89.89,0,0,0,516.37,57.48Z"/><path class="cls-4" d="M494.69,53s-.9-2.47-2.38-1.86-2,5.57,3.53,7.06Z"/><path class="cls-6" d="M494.5,56.81a.81.81,0,0,0,.19-.52c0-.18,0-.37.05-.56a5.92,5.92,0,0,0-.07-1.11,4.62,4.62,0,0,0-.29-1.09,2.22,2.22,0,0,0-.69-.94,1.47,1.47,0,0,0-1.15-.24,1.06,1.06,0,0,0-.81.82,1.31,1.31,0,0,0,.24,1.12,1.69,1.69,0,0,0,1,.56,1.37,1.37,0,0,1-1-1.63.9.9,0,0,1,.67-.65,1.2,1.2,0,0,1,1,.23,2.91,2.91,0,0,1,.94,1.85,6.65,6.65,0,0,1,.14,1.08,5,5,0,0,1,0,.55A.87.87,0,0,1,494.5,56.81Z"/><path class="cls-7" d="M511,54a2.56,2.56,0,0,0-2.12.81.56.56,0,0,0-.19.44c0,.25.31.36.55.42a12.26,12.26,0,0,0,3,.32,1.29,1.29,0,0,0,.48-.06.48.48,0,0,0,.33-.33c.09-.32-.53-.87-.75-1A2.58,2.58,0,0,0,511,54Z"/><path class="cls-8" d="M514.7,53.89s-1-2.1-4.81-2.55c0,0-1.43-.17-1.68.59s.72.5,1.74.59A13.23,13.23,0,0,1,514.7,53.89Z"/><path class="cls-8" d="M512.16,56a12,12,0,0,1-2.93-.32q-.56-.14-.6-.48a.59.59,0,0,1,.21-.5A2.63,2.63,0,0,1,511,53.9h0a2.64,2.64,0,0,1,1.35.56c.15.12.89.73.78,1.13a.56.56,0,0,1-.37.38,1.43,1.43,0,0,1-.51.06Zm-1.4-2a2.47,2.47,0,0,0-1.81.79.49.49,0,0,0-.18.39c0,.16.19.28.5.36a12,12,0,0,0,3,.32,1.36,1.36,0,0,0,.46,0,.5.5,0,0,0,.29-.28c.05-.23-.34-.67-.74-1A2.55,2.55,0,0,0,511,54h-.24Z"/><circle class="cls-8" cx="510.92" cy="54.94" r="0.97"/><path class="cls-7" d="M499.93,53.36a2.55,2.55,0,0,1,2.06.94.58.58,0,0,1,.17.46c-.05.24-.34.33-.58.38a12.36,12.36,0,0,1-3,.12,1.46,1.46,0,0,1-.47-.1.5.5,0,0,1-.31-.35c-.06-.33.59-.83.83-1A2.47,2.47,0,0,1,499.93,53.36Z"/><path class="cls-8" d="M496.26,53s1.12-2,5-2.22c0,0,1.43-.07,1.62.71s-.75.44-1.77.47A13.21,13.21,0,0,0,496.26,53Z"/><path class="cls-8" d="M498.54,55.33a1.59,1.59,0,0,1-.5-.1.56.56,0,0,1-.35-.4c-.08-.41.7-1,.85-1.08a2.75,2.75,0,0,1,1.39-.47h0a2.64,2.64,0,0,1,2.12,1,.64.64,0,0,1,.18.51c-.05.23-.26.37-.64.44a11.74,11.74,0,0,1-2.95.12Zm1.4-1.9h0a2.39,2.39,0,0,0-1.31.44c-.42.29-.84.7-.8.93a.43.43,0,0,0,.27.3,1.5,1.5,0,0,0,.45.09,12.31,12.31,0,0,0,3-.12c.31-.06.49-.17.52-.33a.54.54,0,0,0-.15-.4,2.52,2.52,0,0,0-1.76-.91Z"/><circle class="cls-8" cx="499.96" cy="54.32" r="0.97"/><polygon class="cls-9" points="503.3 60.01 505.17 60.8 505.1 60.79 507.05 60.28 505.16 60.97 505.12 60.98 505.09 60.96 503.3 60.01"/><path class="cls-9" d="M503.53,59.05a1.43,1.43,0,0,1-.53.85A1.4,1.4,0,0,1,503.53,59.05Z"/><path class="cls-9" d="M506.94,59.29a1.41,1.41,0,0,1,.4.91A1.36,1.36,0,0,1,506.94,59.29Z"/><path class="cls-10" d="M508.94,63.15a.2.2,0,0,0-.12-.12.3.3,0,0,0-.2-.14,2.54,2.54,0,0,1-.46.17,5.51,5.51,0,0,1-3.14,0c-.62-.06-1.21,0-1.85,0a.33.33,0,0,1-.15,0,2.51,2.51,0,0,1-1.13-.25,5,5,0,0,1-.83-.42l-.1,0a6.18,6.18,0,0,0,.51,1.12.77.77,0,0,1,.07.17,4,4,0,0,0,1.25,1.16,4.93,4.93,0,0,0,2.64.5,4.14,4.14,0,0,0,3.23-1.66C508.74,63.56,508.84,63.36,508.94,63.15Z"/><path class="cls-9" d="M500.91,62.08a2.7,2.7,0,0,0,1.95.94c.73.07,1.43,0,2.13,0a16.53,16.53,0,0,0,2.14.19,3,3,0,0,0,2.08-.8,2.89,2.89,0,0,1-2.08.94,13.36,13.36,0,0,1-2.15-.15c-.68-.07-1.38,0-2.13-.08A2.62,2.62,0,0,1,500.91,62.08Z"/><path class="cls-9" d="M500.61,62.27a6.75,6.75,0,0,1,.73,1,6.33,6.33,0,0,0,.72,1.05,3.84,3.84,0,0,0,2.72,1,8.14,8.14,0,0,0,1.56-.12,4.25,4.25,0,0,0,1.42-.48,2.17,2.17,0,0,0,.82-1,2.67,2.67,0,0,1,.74-1,2.39,2.39,0,0,0-.63,1,2.19,2.19,0,0,1-.81,1.05,4.1,4.1,0,0,1-1.49.54,8.72,8.72,0,0,1-1.62.15,4,4,0,0,1-2.87-1.13C501.34,63.68,501.13,62.93,500.61,62.27Z"/><path class="cls-9" d="M500.76,62.28a6.4,6.4,0,0,0,4.09,1.83,6.54,6.54,0,0,0,4.35-1.34,5.86,5.86,0,0,1-4.36,1.52A5.76,5.76,0,0,1,500.76,62.28Z"/><path class="cls-8" d="M493.69,52.59s-2.53-2-2-3.8a3,3,0,0,1,2.57-2s-1.82-2.43-1-3.75,2.62-.85,2.62-.85-2.14-1.83-.48-3.31,3.63,1,3.63,1-1.84-2.73,0-3.45,3.18,2,3.18,2-.06-2.73,1.68-2.76,2,2.43,2,2.43,2-2.82,4.35-1.77a2.79,2.79,0,0,1,1.71,3.28s2.53-1.24,3.39-.39,0,3.28,0,3.28,2.51-1,3,.46a2.58,2.58,0,0,1-.89,2.83s2.17.13,2.41,1.64-1.52,2.17-1.52,2.17,2.33,1.87,1.89,2.73-3.33.71-3.33.71-1.21-6-3.42-7.67a1.56,1.56,0,0,1-1.5,1.21c-1.34.13-1.94-1.84-1.94-1.84s-1.09,2.43-2.61,2.1-1.83-3.09-1.83-3.09-.35,2.43-1.53,2.43-2.63-2.49-2.63-2.49.17,2.64-1.39,2.9a3.84,3.84,0,0,1-2.68-.54s-3,5.66-2.54,7.57Z"/><path class="cls-1" d="M513.74,71.47l-.6,1.37a17.55,17.55,0,0,1-2.48,4.66c-1.69,2.06-4.49,4.06-7.2,4.35-5,.54-7.8-6-8.93-10.62L486.32,77l4.09,89.14L534.05,165V77.7Z"/><path class="cls-11" d="M496.18,70.09,473,83.83l2.6,49.16-4.64,41.65,17.45,3s3.16.93,4.09-2,12.95-57.38,12.95-57.38.6-2-1.07-5.39-11.11-22.47-11.11-22.47l.36-14.46Z"/><path class="cls-12" d="M496.18,67.16a11.76,11.76,0,0,0-4.49,5.58l-7.55,4.47L479,89.51s.14,1.36,1.22,1.22,8.67-2.3,8.67-2.3L479.57,92s-1.35.81-.54,1.9,22.89,15.24,24.52,20.3,1,8,1,8,2.85-3.15.13-10.6-9.09-22.89-9.23-27.36.76-14.14.76-14.14Z"/><path class="cls-4" d="M463.11,170.74l.44,4.29,4.2,5.54,1.49,1.4,2.15,0,4,.4,2-.93a2.58,2.58,0,0,0-2.8-1.1l-2.17-1.44-1.7-4.33,1.58-4.77.54,6.3s1.07,3.4,3.33,3.66l-.9-3.7-.18-9.13-8.53-3.51-3.37,4.27Z"/><path class="cls-6" d="M466.56,172.88c1.05,2.54,2,5.13,2.84,7.73l0,0q1,.72,1.92,1.47c-.67-.44-1.35-.88-2-1.33l0,0v0C468.28,178.1,467.36,175.51,466.56,172.88Z"/><path class="cls-6" d="M464.77,174.28a22.1,22.1,0,0,1,1,2.17,23.54,23.54,0,0,1,.75,2.24,21.93,21.93,0,0,1-1-2.16A19.78,19.78,0,0,1,464.77,174.28Z"/><polygon class="cls-11" points="472.95 83.83 466.67 129.9 462.42 168.71 475.73 168.52 475.55 132.9 472.95 83.83"/><path class="cls-13" d="M473,83.83l.66,10.27.58,10.28,1.17,20.55.25,5.14.13,2.57c0,.86,0,1.72,0,2.58l0,10.29,0,10.29-.11,10.3-.12-10.29,0-10.29,0-10.29c0-.86,0-1.72,0-2.58l-.14-2.56-.29-5.14-1-20.56-.5-10.28Z"/><path class="cls-11" d="M534.05,77.7l6.45,3.43-6.45,50.26L547.68,164l-6.82,11.57s-24.32-28.56-27-51.68,0-28.38,0-28.38l2.35-23.32Z"/><path class="cls-4" d="M528.07,161.28c-1.94,1.7-5.25,4.84-5.44,6.7,0,0,4.75,7.25,13,4.91l1.62-6.2Z"/><path d="M521.38,166.73a21.63,21.63,0,0,0,2.91,2.91,17.41,17.41,0,0,0,3.39,2.26,11.87,11.87,0,0,0,3.86,1.19l1,.1,1,0,.52,0,.5-.09,1-.16a10,10,0,0,1-4.11.57,11.63,11.63,0,0,1-4-1.14,16,16,0,0,1-6.09-5.59Z"/><path class="cls-12" d="M513.21,67.16s2.13.92,4.58,5.55l8.51,2.62,3.25,10.12s.69,2.94-1.73,3.11h-8.44L529.64,91s2.67.86,1.12,2.59S517.25,110,515,114.15c-1.63,3-1.61,5.12-1.11,9.77,0,0-4.15-5.32-2.59-24.65s1.63-28.07,1.63-28.07Z"/><polygon class="cls-11" points="540.5 81.13 552.29 126.88 540.5 168.61 527.05 160.68 536.46 126.88 535.23 122.19 540.5 81.13"/><path class="cls-13" d="M534.05,131.39c.34-3.4.72-6.8,1.12-10.19L536.42,111l1.36-10.16c.46-3.38,1-6.76,1.48-10.13-.34,3.39-.72,6.79-1.12,10.18l-1.25,10.17-1.36,10.15Q534.82,126.32,534.05,131.39Z"/><path class="cls-13" d="M527.06,160.68q1.05-4.26,2.17-8.5l2.3-8.46,2.4-8.44q1.23-4.22,2.53-8.4c-.7,2.84-1.42,5.68-2.17,8.5l-2.3,8.47-2.41,8.43C528.77,155.09,527.92,157.89,527.06,160.68Z"/><path class="cls-13" d="M528.07,161.28c4.17,2.4,8.35,4.77,12.5,7.21l-.2.08,5.8-20.89,3-10.42,3-10.42v.08l-2.26-9-2.2-9,2.41,8.92,2.35,8.94v.08l-2.9,10.45-2.93,10.44-6,20.84,0,.17-.15-.09C536.29,166.28,532.19,163.77,528.07,161.28Z"/><path class="cls-14" d="M241.38,287.58c-1.8,2.37-3.76,4.89-3.89,7.87a3.67,3.67,0,0,0,1.52,3.44,4.88,4.88,0,0,0,3.57,0q2.76-.69,5.5-1.46a5.2,5.2,0,0,0,2.67-1.35c.41-.49.64-1.11,1.09-1.55,1.38-1.33,4.36-.57,5-2.39a3,3,0,0,0,0-1.52l-1.52-8.4a1.55,1.55,0,0,0-.31-.8A1.53,1.53,0,0,0,254,281c-1.91-.33-7.3-1.89-8.93-.59-.79.63-.85,2.46-1.29,3.37A22,22,0,0,1,241.38,287.58Z"/><path class="cls-14" d="M302,287.58c1.8,2.37,3.77,4.89,3.9,7.87a3.7,3.7,0,0,1-1.53,3.44,4.88,4.88,0,0,1-3.57,0c-1.83-.46-3.67-1-5.49-1.46a5.19,5.19,0,0,1-2.68-1.35,17.19,17.19,0,0,0-1.09-1.55c-1.38-1.33-4.36-.57-5-2.39a2.91,2.91,0,0,1,0-1.52l1.51-8.4a1.74,1.74,0,0,1,.31-.8,1.56,1.56,0,0,1,1-.41c1.9-.33,7.3-1.89,8.92-.59.79.63.86,2.46,1.29,3.37A22,22,0,0,0,302,287.58Z"/><polygon class="cls-15" points="244.96 228.76 242.58 281.54 255.83 283.05 264.43 230.5 279.78 230.06 286.49 282.18 299.25 281.54 297.73 228.76 244.96 228.76"/><path class="cls-16" d="M253.21,236c-.12,3.63-.35,7.24-.59,10.85s-.57,7.22-.84,10.83-.67,7.21-1.07,10.81l-.61,5.4c-.23,1.8-.44,3.6-.7,5.39,0-1.81.16-3.62.24-5.43l.35-5.42c.24-3.61.56-7.22.84-10.83s.67-7.21,1.06-10.81S252.7,239.54,253.21,236Z"/><path class="cls-16" d="M289.44,236c.53,3.57.95,7.14,1.36,10.72s.73,7.15,1.1,10.73.62,7.17.88,10.76l.36,5.38c.09,1.8.21,3.59.27,5.4-.28-1.79-.49-3.57-.73-5.36l-.63-5.36c-.4-3.57-.73-7.15-1.1-10.73s-.63-7.17-.88-10.76S289.58,239.55,289.44,236Z"/><path class="cls-17" d="M263,72.85c5.76,3.06,12.67,1.79,18.6-.83l-.16-.07.29-11.85-19.4,1.36,1.14,11.16Z"/><polygon class="cls-18" points="262.32 61.84 263.35 71.98 281.45 69.68 281.68 60.34 262.32 61.84"/><path class="cls-17" d="M285.81,47.87A13.39,13.39,0,0,0,259.05,47a13.66,13.66,0,0,0,.55,4.22h0s.88,11.52,3.86,14.84,8.29,3.25,8.29,3.25,5.15.22,8.29-2.91c2.84-2.83,5-14.4,5-14.4h0A13.5,13.5,0,0,0,285.81,47.87Z"/><path class="cls-19" d="M265.71,45.19c2.44-3.14,4.77-6.81,4.55-10.92a13.4,13.4,0,0,0-11.07,12.78,13.2,13.2,0,0,0,.42,3.68A19.19,19.19,0,0,0,265.71,45.19Z"/><path class="cls-19" d="M285.64,49.5a12.68,12.68,0,0,0,.17-1.63,13.38,13.38,0,0,0-9.43-13.19C276.49,41.15,279.46,47.52,285.64,49.5Z"/><path class="cls-7" d="M266.67,51a2.8,2.8,0,0,1,2.2,1.1.62.62,0,0,1,.16.51c-.06.25-.38.35-.64.39a14,14,0,0,1-3.3,0,1.66,1.66,0,0,1-.51-.12.58.58,0,0,1-.33-.39c-.05-.37.67-.89.94-1.06A2.79,2.79,0,0,1,266.67,51Z"/><path class="cls-20" d="M262.37,49.91s1.61-1.55,5.8-1.62c0,0,1.56,0,1.74.83s-.1.91-1.21.9S265,49,262.37,49.91Z"/><path class="cls-21" d="M266.67,51a2.8,2.8,0,0,1,2.2,1.1.62.62,0,0,1,.16.51c-.06.25-.38.35-.64.39a14,14,0,0,1-3.3,0,1.66,1.66,0,0,1-.51-.12.58.58,0,0,1-.33-.39c-.05-.37.67-.89.94-1.06A2.79,2.79,0,0,1,266.67,51Z"/><circle class="cls-20" cx="266.66" cy="52.06" r="1.05"/><path class="cls-7" d="M279,51.39a2.79,2.79,0,0,0-2.26,1,.61.61,0,0,0-.19.5c0,.26.35.37.61.43a13.49,13.49,0,0,0,3.3.22,1.58,1.58,0,0,0,.52-.09.55.55,0,0,0,.34-.37c.08-.36-.61-.92-.87-1.11A2.79,2.79,0,0,0,279,51.39Z"/><path class="cls-20" d="M283.35,50.56s-1.51-1.65-5.69-2c0,0-1.56-.12-1.79.72s.05.92,1.16,1S280.82,49.49,283.35,50.56Z"/><path class="cls-21" d="M279,51.39a2.79,2.79,0,0,0-2.26,1,.61.61,0,0,0-.19.5c0,.26.35.37.61.43a13.49,13.49,0,0,0,3.3.22,1.58,1.58,0,0,0,.52-.09.55.55,0,0,0,.34-.37c.08-.36-.61-.92-.87-1.11A2.79,2.79,0,0,0,279,51.39Z"/><circle class="cls-20" cx="278.94" cy="52.44" r="1.05"/><polygon class="cls-18" points="270.33 58.52 272.41 59.27 272.32 59.27 274.42 58.65 272.4 59.5 272.36 59.52 272.31 59.5 270.33 58.52"/><path class="cls-18" d="M270.54,57.47a1.18,1.18,0,0,1-.16.53,1.11,1.11,0,0,1-.37.41,1.14,1.14,0,0,1,.16-.53A1.11,1.11,0,0,1,270.54,57.47Z"/><path class="cls-18" d="M274.25,57.58a1.28,1.28,0,0,1,.35.43,1.24,1.24,0,0,1,.13.55,1.12,1.12,0,0,1-.35-.44A1.2,1.2,0,0,1,274.25,57.58Z"/><path class="cls-9" d="M276.59,61.69a.26.26,0,0,0-.14-.13.31.31,0,0,0-.22-.14,3,3,0,0,1-.49.2c-1.14.6-2.34.26-3.41.19-.67,0-1.31,0-2,0a.5.5,0,0,1-.16,0,2.8,2.8,0,0,1-1.23-.23,5.06,5.06,0,0,1-.92-.41.25.25,0,0,0-.11,0,6.33,6.33,0,0,0,.6,1.19.6.6,0,0,1,.08.19,4.4,4.4,0,0,0,1.41,1.2,5.34,5.34,0,0,0,2.89.43,4.52,4.52,0,0,0,3.44-1.94A7.22,7.22,0,0,1,276.59,61.69Z"/><path class="cls-18" d="M267.83,60.87a2.9,2.9,0,0,0,2.16.93c.79.05,1.54-.07,2.31,0a16.18,16.18,0,0,0,2.33.11,3.22,3.22,0,0,0,2.22-1A3.09,3.09,0,0,1,274.63,62a13.85,13.85,0,0,1-2.34-.06c-.74-.05-1.49.07-2.3,0A2.82,2.82,0,0,1,267.83,60.87Z"/><path class="cls-18" d="M267.51,61.09a7.34,7.34,0,0,1,.84,1.07,6.62,6.62,0,0,0,.82,1.11,4.11,4.11,0,0,0,3,1,8.57,8.57,0,0,0,1.68-.2,4.46,4.46,0,0,0,1.53-.58,2.43,2.43,0,0,0,.85-1.08,2.88,2.88,0,0,1,.75-1.12,2.73,2.73,0,0,0-.64,1.13,2.38,2.38,0,0,1-.83,1.17,4.32,4.32,0,0,1-1.6.65,8.38,8.38,0,0,1-1.74.23,4.27,4.27,0,0,1-3.16-1.1C268.36,62.59,268.11,61.78,267.51,61.09Z"/><path class="cls-18" d="M267.68,61.09a6.86,6.86,0,0,0,4.51,1.81,7,7,0,0,0,4.66-1.64,6.34,6.34,0,0,1-4.67,1.84A6.23,6.23,0,0,1,267.68,61.09Z"/><path class="cls-17" d="M285,51.29s1.22-2.81,2.9-2,1.95,6.66-4.62,8Z"/><path class="cls-18" d="M284.91,55.8a1,1,0,0,1-.19-.62c0-.21,0-.43,0-.65a6.33,6.33,0,0,1,.16-1.3,4.72,4.72,0,0,1,.42-1.25,2.49,2.49,0,0,1,.87-1,1.71,1.71,0,0,1,1.36-.21,1.29,1.29,0,0,1,.89,1A1.49,1.49,0,0,1,288,53a1.83,1.83,0,0,1-1.16.58,1.58,1.58,0,0,0,1.3-1.82,1.06,1.06,0,0,0-.74-.81,1.4,1.4,0,0,0-1.12.2,3.37,3.37,0,0,0-1.23,2.09,6.68,6.68,0,0,0-.24,1.26c0,.21,0,.43-.05.64A1.09,1.09,0,0,0,284.91,55.8Z"/><path class="cls-17" d="M259.54,50.51s-1.05-2.89-2.78-2.18-2.35,6.53,4.13,8.26Z"/><path class="cls-18" d="M259.32,55a.92.92,0,0,0,.22-.6c0-.22,0-.43.06-.65a7.15,7.15,0,0,0-.08-1.31,5.39,5.39,0,0,0-.34-1.28,2.54,2.54,0,0,0-.81-1.09,1.72,1.72,0,0,0-1.34-.29,1.26,1.26,0,0,0-.95,1,1.51,1.51,0,0,0,.28,1.3,1.91,1.91,0,0,0,1.12.66,1.59,1.59,0,0,1-1.18-1.9,1.07,1.07,0,0,1,.79-.77,1.44,1.44,0,0,1,1.11.27,3.5,3.5,0,0,1,1.1,2.17,7.74,7.74,0,0,1,.16,1.27c0,.21,0,.43,0,.64A1,1,0,0,1,259.32,55Z"/><path class="cls-20" d="M273,45.13c4.34,0,7.49-2.64,10.09-5.77A13.36,13.36,0,0,0,262,39.13,13.31,13.31,0,0,0,273,45.13Z"/><polygon class="cls-22" points="304.74 82.52 310.49 126.13 312.81 158.85 298.87 157.83 298.76 128.1 296.36 119.77 296.28 97.85 304.74 82.52"/><path class="cls-17" d="M310.67,171.4l-.36,4.3-4.12,5.61-1.46,1.42h-2.15l-4,.46-2-.89a2.58,2.58,0,0,1,2.77-1.15l2.15-1.47,1.62-4.36-1.65-4.75-.44,6.31s-1,3.42-3.27,3.71l.84-3.7,0-9.14,8.47-3.65,4.15,5.08Z"/><path class="cls-18" d="M306.67,173.64c-.79,2.64-1.7,5.23-2.66,7.8v0l0,0c-.66.45-1.34.89-2,1.33.63-.5,1.26-1,1.91-1.47l0,0C304.72,178.78,305.64,176.19,306.67,173.64Z"/><path class="cls-18" d="M309.34,175c-.2.77-.48,1.5-.75,2.24s-.59,1.47-1,2.17a22.71,22.71,0,0,1,1.71-4.41Z"/><path class="cls-23" d="M314.17,158.84a16.68,16.68,0,0,0-16.49-2l.68,12s4.81-2.68,7.6-1.93,4.32,1.89,4.71,4.43c0,0,3,0,3.54-3.69A46.88,46.88,0,0,0,314.17,158.84Z"/><path class="cls-24" d="M311.41,167.09a10.05,10.05,0,0,1,2.61,1.48,3.68,3.68,0,0,1-3.35,2.83c-.39-2.54-1.92-3.68-4.71-4.43s-7.6,1.93-7.6,1.93l-.08-1.44A16.56,16.56,0,0,1,311.41,167.09Z"/><path class="cls-22" d="M298.58,100.38l6.26-17.79L281.39,72l0-1.24c-5.56,2.83-12,2.68-18.08,1.09l.08.82L240.17,84.21l8.52,15.3v36.74s-6.26,23.93-6.26,46,.35,44.5.35,44.5-.87,6.78,6.6,7.3,38.6.52,44.51-.87,5.39-1.56,5.56-4.86-1.74-79.8-3.82-91.62Z"/><path class="cls-24" d="M240.17,84.21c2.89,5.07,5.8,10.13,8.64,15.23l0,0v0l.06,18.37q0,9.18,0,18.37v.05q-2.22,9.07-3.87,18.27a144.44,144.44,0,0,0-2.26,18.53c.05-3.11.31-6.22.64-9.32s.83-6.18,1.34-9.26q1.57-9.21,3.75-18.32v.05c0-6.12,0-12.25,0-18.37l.06-18.37,0,.06C245.73,94.47,243,89.33,240.17,84.21Z"/><path class="cls-13" d="M260.44,74.1c.63,7.12.78,14.29,2.75,21.21,1,3.37,5.29,17,10.87,12.8,4.31-3.28,5.12-10.31,6.28-15.15,1.55-6.42,3.45-12.75,5.26-19.1L281.39,72l0-1.24c-5.56,2.83-12,2.68-18.08,1.09l.08.82Z"/><path class="cls-23" d="M281.45,69.67s11.95,3.06,15.35,11.91h-8.29l9.88,2.84S290.1,100.54,280,110.18s-16.34,16.58-17.25,19.42,11.46-30.54,12.48-32.81S281.29,76.14,281.45,69.67Z"/><path class="cls-23" d="M273.48,107.25c-2-5.32-3.66-9.69-4-10.46-1-2.27-6.05-20.65-6.21-27.12,0,0-11.95,3.06-15.36,11.91h8.29l-9.88,2.84s8.29,16.12,18.39,25.76c1.81,1.73,3.48,3.36,5,4.9A55.12,55.12,0,0,0,273.48,107.25Z"/><circle class="cls-13" cx="260.06" cy="114.09" r="1.93"/><circle class="cls-13" cx="286.82" cy="114.09" r="1.93"/><circle class="cls-13" cx="266.05" cy="129.77" r="1.93"/><circle class="cls-13" cx="282.95" cy="129.77" r="1.93"/><circle class="cls-13" cx="283.24" cy="147.28" r="1.93"/><path class="cls-24" d="M262.75,129.6q-.37,6.79-.63,13.59t-.5,13.6c-.22,9.06-.41,18.14-.77,27.21s-.88,18.13-1.73,27.17c-.21,2.26-.47,4.51-.8,6.76a32,32,0,0,1-.66,3.35c-.28,1.11-.67,2.17-1,3.27-.55,2.16-1.12,4.45-.56,6.66a3.84,3.84,0,0,0,2.05,2.52,8.32,8.32,0,0,0,3.31.65,8.23,8.23,0,0,1-3.33-.6,3.91,3.91,0,0,1-2.14-2.54c-.61-2.24-.07-4.57.45-6.75.27-1.11.67-2.19.93-3.28a30.88,30.88,0,0,0,.64-3.32c.31-2.24.56-4.5.76-6.75.79-9,1.2-18.1,1.57-27.16s.65-18.13.93-27.2q.24-6.81.58-13.6T262.75,129.6Z"/><path class="cls-24" d="M246.63,145.35c1.67-.55,3.35-1,5.05-1.48.85-.21,1.71-.4,2.57-.55a16.56,16.56,0,0,1,2.63-.31h.19v.19c-.1,1.76-.27,3.51-.53,5.25a21.21,21.21,0,0,1-.54,2.61,3.84,3.84,0,0,1-.59,1.27,4.34,4.34,0,0,1-1.14.79c-1.56.85-3.18,1.53-4.79,2.23s-3.23,1.37-4.86,2l-.34.13.07-.35C245.08,153.18,245.86,149.23,246.63,145.35Zm0,0c-.62,4-1.25,8-1.9,11.87l-.27-.21c1.62-.68,3.23-1.36,4.84-2.06s3.2-1.42,4.74-2.24a4.05,4.05,0,0,0,1-.68,3.28,3.28,0,0,0,.51-1.1,19.43,19.43,0,0,0,.55-2.54c.27-1.72.45-3.47.6-5.21l.17.19a16.17,16.17,0,0,0-2.58.23c-.86.13-1.72.31-2.57.49C250,144.45,248.32,144.88,246.63,145.35Z"/><path class="cls-24" d="M296.51,145.35c-2.65-.67-5.25-1.31-7.8-2l.21-.18c.35,2.66.65,5.32,1,8v0a3.3,3.3,0,0,0,.87,2,5.17,5.17,0,0,0,1.84,1.28,8.22,8.22,0,0,0,1.08.4c.38.09.75.19,1.13.26a18.22,18.22,0,0,0,2.33.24l-.21.22-.23-5.06Zm0,0,.43,5,.39,5.12,0,.23h-.23a21.29,21.29,0,0,1-2.38-.23c-.39-.07-.78-.17-1.18-.26a9.71,9.71,0,0,1-1.14-.41,5.41,5.41,0,0,1-2-1.38,3.59,3.59,0,0,1-1-2.29v0c-.29-2.66-.6-5.31-.86-8l0-.25.24.07C291.41,143.78,294,144.59,296.51,145.35Z"/><polygon class="cls-24" points="301.4 92.37 298.67 100.4 298.67 100.38 295.86 136.73 295.86 136.69 297.05 159.34 297.64 170.66 298.15 181.99 297.4 170.68 296.73 159.36 295.39 136.72 295.39 136.71 295.39 136.69 298.5 100.37 298.5 100.36 298.5 100.35 301.4 92.37"/><polygon class="cls-22" points="240.17 84.21 234.58 127.83 232.38 160.56 246.31 159.49 246.31 129.77 248.69 121.42 248.69 99.51 240.17 84.21"/><path class="cls-17" d="M234.56,173.1l.38,4.3,4.13,5.6,1.46,1.42h2.15l4,.45,2.05-.91a2.58,2.58,0,0,0-2.78-1.13l-2.15-1.47L242.12,177l1.64-4.75.45,6.3s1,3.42,3.29,3.71l-.86-3.71,0-9.13-8.49-3.62L234,170.9Z"/><path class="cls-18" d="M238.56,175.34c1.05,2.54,2,5.12,2.85,7.72l0,0q1,.72,1.92,1.47c-.68-.44-1.35-.87-2-1.33h0v0C240.28,180.55,239.36,178,238.56,175.34Z"/><path class="cls-18" d="M235.9,176.65a22,22,0,0,1,1,2.16c.27.74.55,1.47.75,2.24a24.92,24.92,0,0,1-1.73-4.4Z"/><path class="cls-24" d="M246.31,157.18c-.16-4.57-.21-9.14-.22-13.71,0-2.28,0-4.57,0-6.85s.07-4.57.1-6.85v0h0l1.13-3.56-.92,3.62v0c0,2.28.09,4.57.1,6.85s0,4.57,0,6.85C246.53,148,246.48,152.61,246.31,157.18Z"/><path class="cls-23" d="M231,160.56a16.71,16.71,0,0,1,16.49-2l-.64,12s-4.82-2.67-7.61-1.9-4.31,1.9-4.69,4.43c0,0-3,0-3.55-3.67A46.56,46.56,0,0,1,231,160.56Z"/><path class="cls-24" d="M233.8,168.8a10.22,10.22,0,0,0-2.6,1.49,3.67,3.67,0,0,0,3.36,2.81c.38-2.53,1.9-3.67,4.69-4.43s7.61,1.9,7.61,1.9l.08-1.44A16.54,16.54,0,0,0,233.8,168.8Z"/><path class="cls-25" d="M96.4,201.62l-85.33-2.94L21,105.45l47.52,4.31s1.44,28.81,5.36,40.24S96.4,201.62,96.4,201.62Z"/><path class="cls-26" d="M27.74,248.62c.06,2.12.26,4.36,1.49,6.09A3.48,3.48,0,0,0,30.76,256a3.3,3.3,0,0,0,3.6-1.3,8.64,8.64,0,0,0,1.36-3.84c.92-5.58.83-11.35,2.43-16.78a16.55,16.55,0,0,0,.84-3.52,4.06,4.06,0,0,0-1.12-3.33,3.72,3.72,0,0,0-3.93-.43C26.87,229.93,27.56,242.55,27.74,248.62Z"/><path class="cls-26" d="M36.81,288.3c.3,1.39.76,2.88,1.95,3.65a5.42,5.42,0,0,0,3.21.59c2.77-.12,5.9-.86,7.22-3.3a6.78,6.78,0,0,0,.24-5.09c-.48-1.67-1.32-3.21-1.93-4.84-1.38-3.65-1.61-7.6-1.89-11.49a1.07,1.07,0,0,0-.29-.8,1,1,0,0,0-.53-.19c-1.61-.25-4.53-1.39-5.89-.18s-1.84,5.08-2.19,6.83A36.27,36.27,0,0,0,36.81,288.3Z"/><path class="cls-1" d="M62.06,167l-8.61,54.25-6,48s-5.84,2.2-9.79-2.06c0,0-.52-47.06,0-48.06s.8-39.09.8-39.09l-1.58-.19-3.12,33.85L35.6,230.7s-2.7,8.7-7.71,6.59l-10.3-18.94L14.45,167Z"/><path class="cls-27" d="M60.3,178,62.06,167H14.45l1.25,20.53,20.86-4.43.3-3.29,1.58.19s0,1,0,2.71Z"/><polygon class="cls-28" points="38.44 179.96 38.39 189.1 38.27 198.25 38.02 216.54 37.79 234.83 37.69 243.97 37.51 253.12 37.46 243.97 37.48 234.83 37.54 216.53 37.95 198.24 38.16 189.1 38.44 179.96"/><path class="cls-28" d="M33.52,171c-.1,2.1-.34,4.18-.61,6.26L32.8,177q2.1,1.26,4.12,2.64l0,0c.52.1,1,.19,1.56.31-.53,0-1.06-.05-1.59-.08H36.8c-1.43-.78-2.85-1.59-4.24-2.44l-.14-.08,0-.15C32.74,175.12,33.06,173.05,33.52,171Z"/><path class="cls-29" d="M14.45,167s27,6.62,47.61,0l5.82-58.52-32.11-17L25.26,99.25Z"/><path class="cls-30" d="M20.25,130.65l-.86,5.4c11.6,1.66,29.66,3,45.83-.87l.57-5.74C49.88,133.66,31.73,132.3,20.25,130.65Z"/><path class="cls-30" d="M18.54,141.37l-.87,5.41c11.24,1.72,29.73,3.4,46.43-.36l.57-5.7C48.21,144.78,29.61,143.09,18.54,141.37Z"/><path class="cls-30" d="M63,157.66l.57-5.69c-17.06,3.93-36.16,1.86-46.72.12L16,157.5C26.72,159.26,45.7,161.28,63,157.66Z"/><path class="cls-30" d="M22,119.9l-.86,5.4C33,126.88,50.66,128,66.34,123.91l.57-5.76C51.5,122.53,33.77,121.47,22,119.9Z"/><path class="cls-30" d="M40.15,93.76l-4.38-2.32L33,93.5C35.31,93.64,37.7,93.73,40.15,93.76Z"/><path class="cls-30" d="M66,107.43c-14.45,3.87-30.77,3.11-42.29,1.7l-.86,5.41C35,116,52.25,116.83,67.46,112.63l.42-4.19Z"/><path class="cls-30" d="M15.12,162.78,14.45,167s27,6.62,47.61,0l.37-3.76C44.69,167,25,164.53,15.12,162.78Z"/><path class="cls-30" d="M26.34,98.45l-1.08.8-.72,4.51c9.62,1.08,22.05,1.64,34.07-.23L50.05,99A136.22,136.22,0,0,1,26.34,98.45Z"/><polygon class="cls-31" points="14.34 87.02 0 119.43 11.01 155.25 17.59 141.66 12.39 118.08 17.59 107.59 14.34 87.02"/><path class="cls-31" d="M32.18,82.57,14.34,87s-1.92,5.77-1.15,16.61,2.5,37.18,2.5,37.18S3,167.15,1.65,193.49l9.42,5.19s5.38-40.76,7.31-56.34S33.52,96.23,33.52,96.23Z"/><path class="cls-32" d="M32.18,82.57,26.9,83.89l-2.31,2.52h4.47l-3.86,3S22.52,112,23.31,123c4.46-13.51,10.21-26.79,10.21-26.79Z"/><path class="cls-25" d="M13.49,97.88q.11,5.37.32,10.74t.44,10.74c.18,3.58.42,7.15.68,10.72s.63,7.14,1,10.7v.06l0,.06c-2.54,5.66-4.8,11.46-6.82,17.34-1,2.93-1.92,5.91-2.8,8.89s-1.62,6-2.3,9c.61-3.06,1.29-6.09,2.1-9.1s1.72-6,2.71-8.93c2-5.9,4.19-11.72,6.7-17.43l0,.12c-.41-3.56-.68-7.14-.94-10.72s-.44-7.15-.59-10.73-.28-7.17-.36-10.75S13.48,101.46,13.49,97.88Z"/><path class="cls-31" d="M65.46,89s-4.87,34.22,2.42,56.76S96.4,201.62,96.4,201.62l11.45-6.54s-33-28-33.66-57.1,2.94-41.75,2.94-41.75Z"/><path class="cls-4" d="M75.87,144.46l-2.36.84-3,2.51s.51,2.95,3,1.06l1.82-1.67s1.66-.09,1.26,1.36l-2,3.42-2.21,1.37-1.56.35s0,2.56,2.74,1.71l-2.33,1s-.32,2,2.33,1.6l-1.86.94a2.7,2.7,0,0,0,3.47,1.59l2.43-1.1,2.82-1.81-3.75,4,1.22,1,3.94-3.38,1.88-4.69,1.41-5.34-4.7-6.67Z"/><path class="cls-6" d="M73.55,158c1.71-.82,3.46-1.57,5.21-2.3l0,0c.69-1,1.41-1.92,2.15-2.86-.65,1-1.32,2-2,3l0,0h0C77.09,156.65,75.33,157.38,73.55,158Z"/><path class="cls-6" d="M73.55,155.41c1.2-.52,2.41-1,3.63-1.51l0,0c.82-1.17,1.66-2.32,2.51-3.47v0c.19-.79.39-1.58.59-2.37-.14.8-.29,1.6-.46,2.4h0c-.81,1.17-1.64,2.34-2.48,3.49v0h0C76,154.53,74.78,155,73.55,155.41Z"/><path class="cls-6" d="M76.66,161.7c1.19-1.41,2.43-2.76,3.69-4.1v0c.52-1.07,1.06-2.14,1.63-3.2-.47,1.11-1,2.2-1.48,3.28h0C79.24,159.08,78,160.41,76.66,161.7Z"/><path class="cls-6" d="M70.81,153.7l1.55-.41h0c.72-.47,1.45-.94,2.18-1.39l0,0c.87-1.55,1.76-3.09,2.71-4.59-.8,1.59-1.67,3.14-2.55,4.68l0,0h0c-.73.45-1.47.9-2.22,1.33h0Z"/><path class="cls-31" d="M77.13,96.23l4.21,30.12s5.47,16.57,3.42,25.12c0,0-.65-7.52-8.89-7,0,0-4.61-7.05-3.24-20.61A270.24,270.24,0,0,1,77.13,96.23Z"/><path class="cls-25" d="M74.19,138,74,132.73l0-5.24c0-3.5.11-7,.3-10.49s.49-7,.94-10.46a73.73,73.73,0,0,1,1.94-10.31c-.4,1.71-.68,3.43-.93,5.16s-.47,3.46-.65,5.2c-.37,3.47-.65,7-.82,10.44s-.32,7-.42,10.46S74.21,134.48,74.19,138Z"/><path class="cls-4" d="M56.46,80.62,55.27,91.19a13.44,13.44,0,0,1-14.89-7.6l-.82-12Z"/><polygon class="cls-5" points="40.09 79.29 41.17 81.18 55.78 86.7 56.46 80.62 39.56 71.59 40.09 79.29"/><path class="cls-33" d="M66.76,86.7s7.46,17.35-4.49,29.77c0,0-5.54,4-9.72,2.1a6.21,6.21,0,0,1-3.66-6.17,23,23,0,0,0,3.66-13.19C52.45,91.06,66.76,86.7,66.76,86.7Z"/><path class="cls-33" d="M52.45,91.06a2.65,2.65,0,0,1,1.17.65A2.11,2.11,0,0,1,54,93.12a6.94,6.94,0,0,1-1.54,4.06,19.82,19.82,0,0,1-3.14,3.07,11.63,11.63,0,0,1-2.62,1.8,5.9,5.9,0,0,1-5.39-.35,2.88,2.88,0,0,1-1.18-1.19,3.81,3.81,0,0,1-.26-1.3,30.36,30.36,0,0,1,.26-6.32,2,2,0,0,1,1.91-2,44.88,44.88,0,0,1,5.87-1C49.55,89.81,51,90.54,52.45,91.06Z"/><path class="cls-1" d="M51.54,90.83a20.6,20.6,0,0,1-2.17,7.29c-1.3,2.2-3.68,3.95-6.22,3.75A1.53,1.53,0,0,0,42,102a.9.9,0,0,0,.19,1.32,2.51,2.51,0,0,0,1.46.37,33.79,33.79,0,0,0,13.08-2.23,18.32,18.32,0,0,0,4.42-2.33c3.61-2.72,5.45-7.21,6.37-11.64a13.18,13.18,0,0,0,.34-3.75,12.5,12.5,0,0,0-.54-2.57c-.64-2.12-1.63-4.34-3.56-5.41-2.94-1.64-6,0-8.26,2-2,1.76-2.49,4.26-2.92,6.8Z"/><path class="cls-33" d="M63.75,75.8a5.24,5.24,0,0,0-3.7-.48A9.08,9.08,0,0,0,56.65,77a8.11,8.11,0,0,0-2.57,2.74,12.14,12.14,0,0,0-1.16,3.6l-1.31,7.54a19.72,19.72,0,0,1-2.24,7.29,21.85,21.85,0,0,0,2.09-7.31l1.23-7.57a12.54,12.54,0,0,1,1.21-3.65,7,7,0,0,1,1.17-1.54,12.48,12.48,0,0,1,1.49-1.23A9.44,9.44,0,0,1,60,75.2,5.36,5.36,0,0,1,63.75,75.8Z"/><path class="cls-1" d="M42,80.25c1.33,3,3.19,6,6.12,7.45,1.21.61,2.79,1.22,2.88,2.57a2.19,2.19,0,0,1-1.56,2,6.38,6.38,0,0,1-2.72.15,13.1,13.1,0,0,1-4.21-.85,9.82,9.82,0,0,1-3.63-3.12,14.71,14.71,0,0,1-3.28-8.36c-.06-2.08.69-6.2,2.82-7.3,1.63-.83,1.39,1.08,1.79,2.49A39.36,39.36,0,0,0,42,80.25Z"/><path class="cls-1" d="M32.2,95.87c.4,8.87,3.1,17.78,8.59,24.77a11,11,0,0,0,4,3.45,9.79,9.79,0,0,0,6.48.1,20.16,20.16,0,0,0,11-7.72,9.4,9.4,0,0,1-7.27.11,16.05,16.05,0,0,1-3.5-2.07,26.33,26.33,0,0,1-3.2-2.67,22.72,22.72,0,0,1-5.71-11.14,58.47,58.47,0,0,1-1.1-12.61,18.68,18.68,0,0,0-.42-4.61,6,6,0,0,0-2.57-3.72c-1.33-.78-1.79-1.52-2.88-.43s-2.48,4.86-2.8,6.22A34.65,34.65,0,0,0,32.2,95.87Z"/><path class="cls-1" d="M32.27,76.45a18.88,18.88,0,0,0-2.18,7.23,25.06,25.06,0,0,0,.72,11.65,4,4,0,0,0,2,2.55c1-.75.79-2.31.56-3.56A17.85,17.85,0,0,1,35.5,82c1.47-2.43,3.59-4.6,4.09-7.4.44-2.44-1.51-2.69-3.27-1.89A9.26,9.26,0,0,0,32.27,76.45Z"/><path class="cls-33" d="M42.51,91.6A10.27,10.27,0,0,1,38.4,88a15.94,15.94,0,0,1-2.46-5,11.67,11.67,0,0,1-.18-5.51,11,11,0,0,1,.85-2.64,4.36,4.36,0,0,1,1.81-2.05,4.41,4.41,0,0,0-1.71,2.1,10.86,10.86,0,0,0-.79,2.62A11.43,11.43,0,0,0,36.16,83a15.88,15.88,0,0,0,2.37,4.92A11.09,11.09,0,0,0,42.51,91.6Z"/><path class="cls-33" d="M35.62,79.33A8.81,8.81,0,0,0,34.4,81.4c-.33.74-.63,1.48-.9,2.24a19.14,19.14,0,0,0-1.1,4.67,50.59,50.59,0,0,0,.06,9.61,45.52,45.52,0,0,0,5.39,18.35,43.64,43.64,0,0,1-5.63-18.33,51,51,0,0,1,0-9.65,19.74,19.74,0,0,1,1.15-4.69q.44-1.12,1-2.22A8.87,8.87,0,0,1,35.62,79.33Z"/><path class="cls-33" d="M32.14,97.46a11.52,11.52,0,0,1-2.38-6.61A29.76,29.76,0,0,1,30,83.73c.23-1.17.39-2.35.71-3.51A17.26,17.26,0,0,1,32,76.89,10.63,10.63,0,0,1,34.15,74a6.75,6.75,0,0,1,3.12-1.65A8.28,8.28,0,0,0,32.17,77a17.15,17.15,0,0,0-1.24,3.31c-.3,1.14-.45,2.33-.66,3.49a29.42,29.42,0,0,0-.35,7.07,17.28,17.28,0,0,0,.63,3.49A8.13,8.13,0,0,0,32.14,97.46Z"/><path class="cls-33" d="M41.63,93.27a26.67,26.67,0,0,0,.26,3.33c.14,1.1.33,2.2.57,3.28a29.54,29.54,0,0,0,2.17,6.28,21.15,21.15,0,0,0,3.74,5.47l1.19,1.16c.43.36.89.67,1.33,1l.66.51.73.41,1.46.82a18.22,18.22,0,0,1-5.49-3.79,21.3,21.3,0,0,1-3.83-5.47,30.7,30.7,0,0,1-2.79-13Z"/><path class="cls-4" d="M33.71,61.5A13.75,13.75,0,0,1,61.2,61l0,0,0,.95h0L60.9,81s-19.79,2.57-24-10.38h0A13.68,13.68,0,0,1,33.71,61.5Z"/><path class="cls-4" d="M60.41,57.07S64,68.51,63.83,72.74L61,73Z"/><path class="cls-20" d="M40.38,66a12.8,12.8,0,0,0,6.19-.38,2.21,2.21,0,0,0,1.28-1.07,1,1,0,0,0-.63-1.34,26.57,26.57,0,0,0,7.46-1.48,1.93,1.93,0,0,0,.77-.48.74.74,0,0,0,.14-.85,1,1,0,0,0-.49-.36,4.94,4.94,0,0,0-1.82-.42,15.07,15.07,0,0,0,8.33-6,4.56,4.56,0,0,0,1-3.32,2.49,2.49,0,0,0-4.23-1.22c0-.22.11-.52.12-.75a2.18,2.18,0,0,0-.23-1.27A1.64,1.64,0,0,0,57,46.52a3.29,3.29,0,0,0-2.64,1,2.94,2.94,0,0,0,0-.89.5.5,0,0,0-.12-.24.58.58,0,0,0-.45-.1,3.85,3.85,0,0,0-2.44,1.18s-8-2.27-13.6,3.73-6.28,13-1.18,19.5L38.63,74Z"/><path class="cls-7" d="M56.61,66.58s.45-1.52,2.83-1.76c0,0,.26.06.17.94A2.34,2.34,0,0,1,59,67.15,15.27,15.27,0,0,1,56.61,66.58Z"/><path class="cls-20" d="M59.84,64.72a7.62,7.62,0,0,0-.94.24,5,5,0,0,0-.91.33,2.63,2.63,0,0,0-1.31,1.32l0-.09a9.52,9.52,0,0,0,1.49.46,13.28,13.28,0,0,0,1.54.22,4.37,4.37,0,0,1-1.57-.08,10.26,10.26,0,0,1-1.52-.47l-.06,0,0-.06a2.73,2.73,0,0,1,1.38-1.4A4,4,0,0,1,59.84,64.72Z"/><ellipse class="cls-20" cx="59.09" cy="65.96" rx="1.18" ry="0.46" transform="translate(-20.23 105.35) rotate(-74.55)"/><path class="cls-20" d="M55.65,64.81a5.82,5.82,0,0,1,3.73-1.52s.62-.17.61-.63-.72-.49-.72-.49A4.54,4.54,0,0,0,55.65,64.81Z"/><path class="cls-6" d="M60,70.38a1.48,1.48,0,0,0-.56,1.08.87.87,0,0,1,0-.69A.61.61,0,0,1,60,70.38Z"/><path class="cls-6" d="M55.37,73.4a1.19,1.19,0,0,0-.76.84A.65.65,0,0,1,55.37,73.4Z"/><path class="cls-6" d="M55.65,74.24a5.85,5.85,0,0,0,.88,1.46,5.34,5.34,0,0,0,1.24,1.13,5.73,5.73,0,0,0,1.51.74,9.39,9.39,0,0,0,1.67.37c-.29,0-.58,0-.86,0a6.23,6.23,0,0,1-.86-.17A4.94,4.94,0,0,1,57.64,77,4.8,4.8,0,0,1,55.65,74.24Z"/><path class="cls-31" d="M37.39,72.62A104.38,104.38,0,0,0,50.28,61.83c4.26-3.95,8.94-7.76,11-13.21-2.62-1.75-6.71-3.66-9.86-3.81A29.3,29.3,0,0,0,42,46.07,29.67,29.67,0,0,0,31.28,51.4a18.11,18.11,0,0,0-6.39,10c-.37,1.77-.27,3.94,1.23,5s3.78.19,5.65.63C34,67.5,36.73,70.38,37.39,72.62Z"/><polygon class="cls-34" points="192.99 69.26 210.42 35.6 194.44 4.12 145.52 0 96.36 29.55 80.61 73.38 100.72 100.5 145.52 100.5 192.99 69.26"/><polygon class="cls-35" points="95.88 30.89 89.88 61.83 106.87 81.12 140.39 81.12 185.21 47.46 183.56 13.65 145.52 0 96.36 29.55 95.88 30.89"/><path class="cls-36" d="M209,35.71l-26-7.57h-.09L137.39,34.4,173.18,7.76,193.35,5.4a.22.22,0,0,0,.2-.26.23.23,0,0,0-.26-.2L173.06,7.31a.21.21,0,0,0-.11,0l-36,26.82,8.82-33a.23.23,0,0,0-.16-.29.24.24,0,0,0-.29.17L136.35,34.5,97.51,29.79a.23.23,0,0,0-.06.46l38.24,4.63-40.91,19a.25.25,0,0,0-.1.08L81.91,72.72A.22.22,0,0,0,82,73a.2.2,0,0,0,.13,0,.22.22,0,0,0,.19-.1L95,54.24l40.81-18.92-26.48,37.4a.09.09,0,0,0,0,.07l-7.81,26.5a.23.23,0,0,0,.15.29h.07a.23.23,0,0,0,.22-.17L109.76,73l26.56-37.5,1.16,37.41a.13.13,0,0,0,0,.06l7.81,26.5a.23.23,0,0,0,.22.17h.06a.23.23,0,0,0,.16-.29l-7.8-26.48L136.77,35.1l34.89,13.58L191.74,69a.22.22,0,0,0,.32,0,.23.23,0,0,0,0-.33L172,48.31l-.08-.05-34.42-13.4L183,28.6l25.92,7.56a.24.24,0,0,0,.29-.16A.23.23,0,0,0,209,35.71Z"/><ellipse class="cls-36" cx="136.32" cy="34.39" rx="2.72" ry="2.12" transform="translate(1.07 72.77) rotate(-30)"/><path class="cls-8" d="M175.55,38S179,33.82,183.84,39s12.34,16.14,4.59,22.88l-20.87,3.39S164,78.19,156.72,71.56s6-6.08,3.73-23.13S175.55,38,175.55,38Z"/><path class="cls-4" d="M185.17,49.55a11.48,11.48,0,1,0-22.87,1.94,11.3,11.3,0,0,0,.89,3.55h0s2.87,9.41,5.73,11.95a9.52,9.52,0,0,0,6.42,2.26,9.4,9.4,0,0,0,5.94-3.31c2.14-2.69,3.63-12.75,3.63-12.75h0A11.28,11.28,0,0,0,185.17,49.55Z"/><path class="cls-4" d="M184.35,54.06s.69-2.27,2.06-1.8,2.08,5-2.85,6.56Z"/><path class="cls-9" d="M184.82,57.25a.62.62,0,0,1-.18-.41c0-.14,0-.29-.07-.44a5.41,5.41,0,0,1,0-.9,4.13,4.13,0,0,1,.19-.9,1.71,1.71,0,0,1,.51-.77,1.22,1.22,0,0,1,.92-.26.9.9,0,0,1,.69.64,1.06,1.06,0,0,1-.15.9,1.36,1.36,0,0,1-.75.5,1.1,1.1,0,0,0,.75-1.35.74.74,0,0,0-.57-.5,1,1,0,0,0-.76.22,2.44,2.44,0,0,0-.68,1.54,6.36,6.36,0,0,0-.06.87c0,.15,0,.3,0,.45A.67.67,0,0,0,184.82,57.25Z"/><path class="cls-8" d="M164.47,55.47s2.27-1.76,4.48-1.41c0,0,.74-.14.77-.68s-.79-.63-.79-.63A5.3,5.3,0,0,0,164.47,55.47Z"/><path class="cls-7" d="M170.11,57.08a3,3,0,0,0-2.67-1,4.25,4.25,0,0,0-2.31.74A4,4,0,0,0,170.11,57.08Z"/><path class="cls-8" d="M167.57,57.88a4.26,4.26,0,0,1-2.51-1L165,56.8l.08-.06h0a3.53,3.53,0,0,1,1.28-.52,7.72,7.72,0,0,1,1.35-.2,3.05,3.05,0,0,1,2.41,1.06A4.07,4.07,0,0,1,167.57,57.88Zm.13-1.77a5.46,5.46,0,0,0-2.52.76h0v-.13a3.86,3.86,0,0,0,4.93.34A3,3,0,0,0,167.7,56.11Z"/><circle class="cls-8" cx="167.71" cy="56.97" r="0.9"/><path class="cls-8" d="M165.66,56.43a1.55,1.55,0,0,1-.84-.39,1.63,1.63,0,0,0,.8.56Z"/><path class="cls-8" d="M165.92,56.36a1.16,1.16,0,0,1-.56-.47,1.17,1.17,0,0,0,.48.62Z"/><path class="cls-8" d="M166.05,57.41a.44.44,0,0,0-.16.43.35.35,0,0,1,.24-.28Z"/><path class="cls-8" d="M166.37,57.56a.43.43,0,0,0-.11.4.38.38,0,0,1,.22-.27Z"/><path class="cls-8" d="M166.68,57.69a.61.61,0,0,0,0,.4.52.52,0,0,1,.16-.32Z"/><path class="cls-8" d="M165.43,56.53a1.24,1.24,0,0,1-.92-.4,1.35,1.35,0,0,0,.91.58Z"/><path class="cls-8" d="M181.6,52s-2.78-.74-4.68.44c0,0-.73.16-1-.32s.48-.9.48-.9A5.3,5.3,0,0,1,181.6,52Z"/><path class="cls-7" d="M177,55.68a3,3,0,0,1,2.07-2,4.23,4.23,0,0,1,2.42-.21A4,4,0,0,1,177,55.68Z"/><path class="cls-8" d="M179.65,55.35a4.12,4.12,0,0,0,1.79-1.9l.05.11h0a5.5,5.5,0,0,0-2.62.29A3,3,0,0,0,177,55.68,4.07,4.07,0,0,0,179.65,55.35Zm-.81-1.58a7.55,7.55,0,0,1,1.32-.35,3.55,3.55,0,0,1,1.38,0h0l.1,0,0,.08a4.16,4.16,0,0,1-1.91,1.91,4.07,4.07,0,0,1-2.66.26A3,3,0,0,1,178.84,53.77Z"/><circle class="cls-8" cx="179.2" cy="54.64" r="0.9"/><path class="cls-8" d="M181,53.49a1.7,1.7,0,0,0,.52-.83,1.66,1.66,0,0,1-.62.69Z"/><path class="cls-8" d="M180.74,53.49a1.17,1.17,0,0,0,.2-.76,1.07,1.07,0,0,1-.33.65Z"/><path class="cls-8" d="M180.88,54.57a.35.35,0,0,1,.34.17.46.46,0,0,0-.32-.34Z"/><path class="cls-8" d="M180.62,54.82a.39.39,0,0,1,.3.17.45.45,0,0,0-.26-.33Z"/><path class="cls-8" d="M180.33,55a.58.58,0,0,1,.26.23.59.59,0,0,0-.16-.36Z"/><path class="cls-8" d="M181.21,53.51a1.41,1.41,0,0,0,.61-.89,1.25,1.25,0,0,1-.69.73Z"/><path class="cls-9" d="M174,64.12c.74-.29,1.13-.11,1.28,0,.09-.16.38-.49,1.17-.51a14.17,14.17,0,0,0,3.08-.72,6.36,6.36,0,0,1-3.92,2.86l0-.08v.08a6.38,6.38,0,0,1-4.72-1.1A14.61,14.61,0,0,0,174,64.12Z"/><path class="cls-37" d="M175.47,65v0a9.12,9.12,0,0,0,4-1.92,6.33,6.33,0,0,1-3.83,2.71l0-.08v.08a6.37,6.37,0,0,1-4.63-1A9.15,9.15,0,0,0,175.47,65Z"/><path class="cls-9" d="M172.9,53.13a21.58,21.58,0,0,1,.4,3.67,8,8,0,0,1-.15,1.83,3.27,3.27,0,0,1-.7,1.64l0,0,0,0a3.12,3.12,0,0,0,3.31.39,3.24,3.24,0,0,1-3.22-.48v.09a3.48,3.48,0,0,0,.77-1.7,9,9,0,0,0,.12-1.86A16.19,16.19,0,0,0,172.9,53.13Z"/><path class="cls-8" d="M175.55,41.11s4.32,8.83,9.73,11.4c0,0,2.35-12-9.73-13.76s-15,10.85-13.29,15.91C162.26,54.66,173.57,49.87,175.55,41.11Z"/><polygon class="cls-15" points="157.74 144.89 173.15 146.34 192.99 78.72 161.11 71.56 155.93 75.87 157.74 144.89"/><path class="cls-13" d="M198.41,174.5s-35.89,11.69-60.18-3.37l28.06-11.66Z"/><path class="cls-25" d="M153,247.9s4.4-2.36,13.68-1.58C166.64,246.32,162.31,251.28,153,247.9Z"/><path class="cls-25" d="M172.27,247.42s6.86-2.43,15.9.79A11.88,11.88,0,0,1,172.27,247.42Z"/><path class="cls-38" d="M193,154.35,182.72,135l-30.62,2.65-9.47,20.83,7,58,8.07,48.81h6.87l-1.16-49.25,1.92-51.64,3.85-.35L171,211.93l3.72,40.23.07-.92.72,14.07h7.17c7.53-34.09,2.73-52.78,2.73-52.78Z"/><polygon class="cls-33" points="182.72 135.03 152.1 137.68 142.63 158.51 144.79 176.25 165.17 169.72 165.37 164.42 169.22 164.07 169.38 168.37 192.11 161.08 192.99 154.35 182.72 135.03"/><path class="cls-31" d="M153,247.9s9.72,1.74,13.68-1.58l-.76,32.92s-3.3,19.74-7.25,19.11-.16-18.19-.16-18.19Z"/><path class="cls-31" d="M172.27,247.42s8.59,5,15.9.79l-5.86,32S177.47,300,173.61,299s1.88-18.09,1.88-18.09Z"/><path class="cls-39" d="M192.9,74.13s-16.42,39.75-23.57,68l-2.41,11.56s-3.69,10.79,6.83,14.39a235.64,235.64,0,0,0,24.66,6.42s4.74-34.68-6.62-56.77L204.5,81.25S202.8,77.55,192.9,74.13Z"/><path class="cls-31" d="M163.92,67.79a3.44,3.44,0,0,1,1.63-2.6c1.15-.52,2.46.12,3.57.7a16.07,16.07,0,0,0,4.66,1.77c1.64.28,4.22-.84,5.63-1.74A15.75,15.75,0,0,1,174.7,74c-1.68,1.48-5.79,3.93-8.14,2.79C163.9,75.52,163.45,70.24,163.92,67.79Z"/><path class="cls-25" d="M163.78,70.55a8.9,8.9,0,0,1,.31-3.66,3.2,3.2,0,0,1,1-1.56,2.36,2.36,0,0,1,1.82-.41,14.73,14.73,0,0,1,3.39,1.49,15.46,15.46,0,0,0,3.45,1.25,12.38,12.38,0,0,1-3.51-1.11,14.78,14.78,0,0,0-3.36-1.4,2.17,2.17,0,0,0-1.68.34,3.09,3.09,0,0,0-1,1.45A10.69,10.69,0,0,0,163.78,70.55Z"/><path class="cls-31" d="M179.83,65.16A14.64,14.64,0,0,1,183,62.1a8.6,8.6,0,0,1,3.33-1.16,7.28,7.28,0,0,1,6.19,1.7,6.49,6.49,0,0,1,1.36,6.4,10.39,10.39,0,0,1-4.17,5.31,27.29,27.29,0,0,1-6.18,3,70.18,70.18,0,0,1-9.08,2.83c-2.7.6-6.88,1.69-9.59.71-2.29-.83-1.44-3.22.26-4.24,2.53-1.52,5.15-2.43,7.52-4.32A53.82,53.82,0,0,0,179.83,65.16Z"/><path class="cls-25" d="M169,74.6a27.49,27.49,0,0,0,7.1-5.45c1.06-1.06,2.07-2.17,3-3.3a28.2,28.2,0,0,1,3.08-3.3,8.28,8.28,0,0,1,4.16-1.71,8.4,8.4,0,0,1,4.46.54,5.54,5.54,0,0,1,3,3.22,7,7,0,0,1,0,4.44,7,7,0,0,0-.16-4.4,5.4,5.4,0,0,0-3-3.12,8.36,8.36,0,0,0-4.37-.49,8,8,0,0,0-4,1.7A28,28,0,0,0,179.24,66c-1,1.12-2,2.22-3.08,3.28s-2.19,2.06-3.37,3A22.14,22.14,0,0,1,169,74.6Z"/><path class="cls-31" d="M165.06,72.86a14.52,14.52,0,0,0,16.55,3c2.08-1,3.88-2.57,6-3.51s4.81-1.18,6.59.31c1.94,1.62,2,4.75.7,6.92A11.69,11.69,0,0,1,189,84c-6.53,2.58-13.82,2.59-20.77,1.56-2.82-.42-5.72-1.05-8-2.73s-4.82-6-3.63-9.06a5.72,5.72,0,0,1,3.3-3C162.11,70,163.57,71.28,165.06,72.86Z"/><path class="cls-25" d="M186.93,84.69a30,30,0,0,1-6,1.31,42.22,42.22,0,0,1-6.16.27,57.27,57.27,0,0,1-6.13-.59,23.68,23.68,0,0,1-6-1.49,27.92,27.92,0,0,0,6,1.34,59.44,59.44,0,0,0,6.11.51,43.31,43.31,0,0,0,6.13-.19A37.42,37.42,0,0,0,186.93,84.69Z"/><path class="cls-25" d="M159.82,70.8a3.64,3.64,0,0,1,2.77,0,7.62,7.62,0,0,1,2.26,1.72,13.7,13.7,0,0,0,4.56,3.27,14.58,14.58,0,0,0,11,.4,27.17,27.17,0,0,0,4.92-2.77,11,11,0,0,1,5.3-2,5.71,5.71,0,0,1,2.79.54,4.26,4.26,0,0,1,2,2,6,6,0,0,1-.46,5.48,6,6,0,0,0,.36-5.43,4.17,4.17,0,0,0-1.92-2,5.51,5.51,0,0,0-2.72-.5,10.82,10.82,0,0,0-5.21,2,27,27,0,0,1-4.94,2.81A14.7,14.7,0,0,1,169.35,76a13.75,13.75,0,0,1-4.58-3.33,7.59,7.59,0,0,0-2.2-1.75A3.64,3.64,0,0,0,159.82,70.8Z"/><path class="cls-13" d="M179.82,135q-1,6.41-2.09,12.81h0v0a4.36,4.36,0,0,0,1.13,4.44,7.41,7.41,0,0,0,2.09,1.24c.77.33,1.55.63,2.35.89,3.18,1,6.43,1.93,9.7,2.71h0a2.34,2.34,0,0,0,1.8-.85,5.69,5.69,0,0,0,1.07-1.89,22.78,22.78,0,0,0,.92-4.37c.4-3,.71-6,1-9-.16,3-.32,6-.69,9a23,23,0,0,1-.85,4.47,5.59,5.59,0,0,1-1.13,2,2.67,2.67,0,0,1-2.15,1h0c-3.28-.78-6.55-1.6-9.75-2.7-.8-.27-1.59-.57-2.37-.91a7.74,7.74,0,0,1-2.21-1.34,4.42,4.42,0,0,1-1.3-2.26,5.06,5.06,0,0,1,.12-2.59v0Q178.56,141.4,179.82,135Z"/><path class="cls-13" d="M180.27,135.25a12.18,12.18,0,0,0,1.91,1.19c.65.36,1.33.68,2,1a34.72,34.72,0,0,0,4.22,1.51c1.42.46,2.88.78,4.34,1.13s2.94.58,4.42.87c-.75-.05-1.5-.13-2.25-.19l-2.24-.33a39.74,39.74,0,0,1-4.41-1,29.31,29.31,0,0,1-4.23-1.63A14.87,14.87,0,0,1,180.27,135.25Z"/><path class="cls-13" d="M187.6,87.48,182.41,102c-1.71,4.83-3.42,9.66-5.07,14.52s-3.29,9.71-4.84,14.6-3.05,9.79-4.18,14.8A147.48,147.48,0,0,1,172.15,131c1.49-4.91,3.09-9.78,4.75-14.64s3.39-9.69,5.18-14.49S185.7,92.24,187.6,87.48Z"/><polygon class="cls-36" points="168.95 94.63 167.08 96.11 136.09 34.75 137.2 34.18 168.95 94.63"/><path class="cls-39" d="M155.93,75.87l5.14,79.51s1.21,12.11-9.52,13.32-13.32,2.43-13.32,2.43,3.81-28.68,12.63-46.52l-2.29-40.26S151,78.36,155.93,75.87Z"/><path class="cls-39" d="M155.93,75.87s-7.49,3.37-9.79,16.36-7.13,29.89-2,32.81,6.7-.43,6.7-.43Z"/><path class="cls-13" d="M151.65,137.3c.22,2.1.42,4.2.58,6.3s.31,4.2.46,6.3v0a4.19,4.19,0,0,1-.1,1.83,3,3,0,0,1-1,1.55,3.9,3.9,0,0,1-1.68.69l-1.71.33q-3.41.64-6.84,1.22c2.25-.56,4.51-1.08,6.77-1.58l1.69-.37a3.36,3.36,0,0,0,1.5-.63,3.2,3.2,0,0,0,.91-2.95v0h0c-.12-2.1-.26-4.2-.35-6.31S151.71,139.41,151.65,137.3Z"/><path class="cls-13" d="M150.87,138.09a4.59,4.59,0,0,1-1.27.77,6.74,6.74,0,0,1-1.43.44,7.52,7.52,0,0,1-1.49.14,7.35,7.35,0,0,1-1.48-.14c1-.16,1.93-.27,2.88-.46A17.74,17.74,0,0,0,150.87,138.09Z"/><path class="cls-13" d="M158,105.93q.53,6.18,1,12.35l.83,12.36.72,12.37q.34,6.18.6,12.37-.51-6.16-.95-12.35l-.83-12.36-.73-12.36C158.33,114.18,158.14,110.06,158,105.93Z"/><path class="cls-4" d="M155.57,87.78l.36-5.28-3.5-6.63,2.44-6.51,6.24,2.9a1.8,1.8,0,0,1-2.18,1.12l-2.68-.95-.13,1.3s5.34-.13,5.79.06.79,1.11.79,1.11a.82.82,0,0,1-.53,1,23.65,23.65,0,0,1-4.23.46s5.28-.13,5.54,1.18-3.28,1.41-3.28,1.41l1.71,3.19-.8,7.64Z"/><path class="cls-9" d="M155.93,82.5c-1.23-2.18-2.4-4.39-3.58-6.59l0,0v0c.79-2.18,1.62-4.35,2.45-6.51l0-.09.09,0c1.89.9,3.79,1.79,5.67,2.73-1.93-.83-3.84-1.7-5.74-2.57l.11,0c-.79,2.18-1.59,4.35-2.43,6.51v-.07C153.66,78,154.83,80.26,155.93,82.5Z"/><path class="cls-9" d="M154.51,76.72c.48-1,1-2,1.51-3l0-.05h.07c1.83,0,3.66,0,5.49.1-1.83.11-3.66.13-5.49.11l.09-.06C155.67,74.78,155.1,75.75,154.51,76.72Z"/><path class="cls-9" d="M163.19,77.1a4.33,4.33,0,0,0-1.26-.41,11.34,11.34,0,0,0-1.32-.19,26.17,26.17,0,0,0-2.66-.07l.07,0c-.43.58-.87,1.16-1.33,1.72q.57-.93,1.17-1.83l0,0h.05a14.34,14.34,0,0,1,2.7.06,7.49,7.49,0,0,1,1.32.25A3.6,3.6,0,0,1,163.19,77.1Z"/><path class="cls-39" d="M142,117.28l12.82-29.8,9,3.22L151,124.61s-2.3,3.94-7,1.63S142,117.28,142,117.28Z"/><circle class="cls-12" cx="156.45" cy="90.71" r="1.54"/><path class="cls-13" d="M155.93,111.27c-.75,2.26-1.55,4.5-2.36,6.74s-1.64,4.46-2.5,6.68v0h0a5.55,5.55,0,0,1-2.41,2,5,5,0,0,1-3.11.25,8.3,8.3,0,0,1-1.47-.53,4.88,4.88,0,0,1-1.31-.84,4.69,4.69,0,0,1-1.47-2.66,4.67,4.67,0,0,0,2.9,3.24,6.93,6.93,0,0,0,1.42.46,5,5,0,0,0,2.88-.3,5.13,5.13,0,0,0,2.18-1.89l0,0c.84-2.23,1.71-4.44,2.57-6.66S155,113.46,155.93,111.27Z"/><path class="cls-13" d="M141.9,117.28c1-2.51,2-5,3-7.52s2.11-5,3.16-7.47,2.15-5,3.22-7.44,2.19-4.94,3.31-7.4l0-.08.07,0L158,88.63l-3.26-1.07.1,0q-1.52,3.76-3.1,7.5c-1.06,2.49-2.09,5-3.18,7.46s-2.15,5-3.26,7.42S143,114.82,141.9,117.28Z"/><path class="cls-4" d="M169.3,95.81l-1.76-8.59-6-2.89-3.58,4,.14,1.48L157.66,92l1.79,1.91-.1,1,2.9,1.6s.9-1.38-.95-2L161.25,93l1.46-.35.79,1.42.42,4.24,2,2.29Z"/><path class="cls-9" d="M159.45,93.9c0-1,.07-2,.15-3v-.07l.08,0c1.36-.34,2.72-.66,4.1-.89-1.33.43-2.69.78-4.05,1.1l.08-.1C159.72,91.94,159.6,92.92,159.45,93.9Z"/><path class="cls-9" d="M158.14,89.85c.65-.93,1.35-1.8,2.05-2.68l0,0h.06c1.25.17,2.5.35,3.74.62-1.26-.07-2.52-.23-3.77-.4l.1,0C159.64,88.18,158.92,89,158.14,89.85Z"/><path class="cls-9" d="M158.06,89.06l-.08-.69h0c1.16-1.38,2.35-2.73,3.53-4.09l0,0,.06,0,3,1.42,3,1.46,0,0v0c.45,2.3.92,4.6,1.32,6.91-.54-2.28-1-4.58-1.5-6.88l.05.07-3-1.43-3-1.47.1,0c-1.21,1.34-2.4,2.69-3.63,4h0Z"/><path class="cls-39" d="M205.53,94.91s-4.41,20.79-13,27.6c-5.22,4.12-28.25-20.26-28.25-20.26l5.85-8.45,20.18,16.64s7.46-30.66,12.67-30S205.53,94.91,205.53,94.91Z"/><circle class="cls-12" cx="170.98" cy="97.66" r="1.54"/><path class="cls-13" d="M180.61,102.47c3.28,2.58,6.53,5.19,9.78,7.82l-.31.1c.65-2.7,1.38-5.39,2.13-8.06s1.6-5.33,2.5-8a75,75,0,0,1,3.06-7.77,27.16,27.16,0,0,1,2-3.67,10.27,10.27,0,0,1,1.32-1.62,2.36,2.36,0,0,1,1.85-.83,2.32,2.32,0,0,0-1.79.89A9.89,9.89,0,0,0,199.91,83a31.34,31.34,0,0,0-1.88,3.7c-1.11,2.54-2,5.15-2.93,7.78s-1.67,5.29-2.45,8-1.51,5.35-2.2,8l-.08.3-.23-.2Q185.36,106.56,180.61,102.47Z"/><path class="cls-13" d="M196.5,118a17.82,17.82,0,0,1-4.1,4.74,2.6,2.6,0,0,1-1.6.39,6,6,0,0,1-1.58-.29,15.94,15.94,0,0,1-2.9-1.27,43.8,43.8,0,0,1-5.17-3.55c-1.63-1.3-3.2-2.68-4.71-4.11,1.62,1.3,3.26,2.59,4.93,3.82a46.43,46.43,0,0,0,5.18,3.43,14.93,14.93,0,0,0,2.79,1.28,3.66,3.66,0,0,0,2.87,0,14.25,14.25,0,0,0,2.29-2A25.31,25.31,0,0,0,196.5,118Z"/><path class="cls-25" d="M402.77,231.17s6-5.4,18.78-1.7C421.55,229.47,416.06,236.27,402.77,231.17Z"/><path class="cls-25" d="M373.77,231.17s6-5.4,18.78-1.7C392.55,229.47,387.07,236.27,373.77,231.17Z"/><polygon class="cls-38" points="367.92 158.91 368.33 182.91 376.33 228.04 381.86 275.6 388.87 275.6 390.6 227.61 393.19 175.74 396.21 176.17 405.29 230.09 410.48 278.98 416.53 278.98 419.99 227.18 422.7 167.99 367.92 158.91"/><path class="cls-31" d="M373.77,231.17s13.11,2.83,18.78-1.7l-2.18,48s-1.68,25.17-7.21,24.14-2.44-25.57-2.44-25.57Z"/><path class="cls-15" d="M392.55,229.47c-5.67,4.53-18.78,1.7-18.78,1.7l.6,3.91c2.66,1,11.16,1.7,18-1.42Z"/><path class="cls-32" d="M392.24,236.43a10.17,10.17,0,0,1-5.36,1.57l.23,2.4a8.57,8.57,0,0,0,5-1.37Z"/><rect class="cls-39" x="386.08" y="237.43" width="1.59" height="3.56" rx="0.75" transform="translate(-14.84 25.86) rotate(-3.76)"/><path class="cls-25" d="M373.77,231.17c1,5.92,1.91,11.86,2.87,17.78s1.82,11.88,2.64,17.83c-1-5.92-1.91-11.86-2.87-17.79S374.59,237.12,373.77,231.17Z"/><path class="cls-25" d="M392.55,229.47c-.17,5.89-.46,11.78-.69,17.67s-.55,11.77-.91,17.65c.17-5.89.46-11.78.69-17.66S392.19,235.36,392.55,229.47Z"/><path class="cls-31" d="M402.77,231.17s13.11,2.83,18.78-1.7l-2.19,48s-1.67,25.17-7.2,24.14-2.44-25.57-2.44-25.57Z"/><path class="cls-15" d="M421.55,229.47c-5.67,4.53-18.78,1.7-18.78,1.7l.6,3.91c2.65,1,11.16,1.7,18-1.42Z"/><path class="cls-32" d="M421.23,236.43a10.15,10.15,0,0,1-5.35,1.57l.23,2.4a8.57,8.57,0,0,0,5-1.37Z"/><rect class="cls-39" x="415.08" y="237.43" width="1.59" height="3.56" rx="0.75" transform="matrix(1, -0.07, 0.07, 1, -14.78, 27.76)"/><path class="cls-25" d="M402.77,231.17c1,5.92,1.91,11.86,2.86,17.78s1.83,11.88,2.65,17.83c-1-5.92-1.91-11.86-2.87-17.79S403.59,237.12,402.77,231.17Z"/><path class="cls-25" d="M421.55,229.47c-.17,5.89-.46,11.78-.69,17.67s-.55,11.77-.92,17.65c.17-5.89.46-11.78.69-17.66S421.18,235.36,421.55,229.47Z"/><path class="cls-5" d="M421,183.62l5.18-.74,3.61-3.11,2.22-6.45-4.67,6.29-3.84,1.6S421,181.66,421,183.62Z"/><path class="cls-4" d="M422.7,161.48l-1.09,5.94,1.76,11.07s1.77.73,1.93-5.17h1.6L428,177l-1.76,2.25s-2.41.64-2.73,1.92h3.05l3.24-2.4,2.53-6.26L428,161.48Z"/><path class="cls-4" d="M374.05,86.63c4.3,3.63,9.39,6.07,15.28,4.06,5-1.71,6.57-6.66,7.91-11.36h-4.05v-10H377.14L379,83.63Z"/><path class="cls-5" d="M393.19,77.3v-8H377.14l1.44,11.34C383.44,79.48,388.32,78.4,393.19,77.3Z"/><path class="cls-31" d="M407.64,119.35a127.24,127.24,0,0,0-1.43-40H395.86a15.24,15.24,0,0,1-9.12,8.94,13.34,13.34,0,0,1-12-2.07L363.67,93l8.5,28s-3.81,25-3.76,33.64c0,0,7.57,16.9,20.71,15.71s23.54-4.66,33.58-2.27Z"/><path class="cls-15" d="M369.82,138.36a43.17,43.17,0,0,1,6.65-1.14c7.09-.61,14.22-.06,21.32-.11a74.07,74.07,0,0,0,14.86-1.6l-5-16.16a127.24,127.24,0,0,0-1.43-40H395.86a15.24,15.24,0,0,1-9.12,8.94,13.34,13.34,0,0,1-12-2.07L363.67,93l8.5,28S371,129.26,369.82,138.36Z"/><path class="cls-1" d="M404,113.32l4.27-.75a131.19,131.19,0,0,0-2.1-33.24H395.86a15.24,15.24,0,0,1-9.12,8.94,13.34,13.34,0,0,1-12-2.07L363.67,93l7.73,25.42C382.34,117.23,393.21,115.17,404,113.32Z"/><path class="cls-31" d="M406.21,79.33,416,85.45l8.51,35.85,2.9,31.17s2.24-.23,2.24,1.34.67,9.4-.89,9.17-6.76-.59-9.43.52c0,0-2.21-9.69,0-10.81l-10.86-52.36Z"/><path class="cls-15" d="M415.67,134.82a77.57,77.57,0,0,0,9.82-3.19l-1-10.33L416,85.45l-9.81-6.12,2.31,21Z"/><path class="cls-1" d="M411,112.11q5.46-.94,10.92-1.92L416,85.45l-9.81-6.12,2.31,21Z"/><path class="cls-4" d="M371,153.14l6.86,7.41s-1.47,1.57-4.68-1.64l2.41,7.25s-4,1.31-5.77,0l-4.18-7.25,1.61-6.74Z"/><path d="M368.87,165.44a4.1,4.1,0,0,0,1.65.92,5,5,0,0,0,1.85.13,28,28,0,0,0,3.83-.55,8,8,0,0,1-1.85.68,11.57,11.57,0,0,1-1.94.33,4.26,4.26,0,0,1-2-.26A3.18,3.18,0,0,1,368.87,165.44Z"/><path class="cls-31" d="M363.67,93l-4.62,13.2-2.55,22.37s.91,18.8,3.59,21.71c0,0-2.07,1.79-1,4,0,0-1,4.83,3.27,4.65l2.68,1.35s2.32-6,6-7.12c0,0,1.21-5.15-3.05-4.48V129.2L371,117Z"/><path class="cls-15" d="M367.92,138.85V129.2L371,117l-7.3-24-4.62,13.2-2.55,22.37s.34,7.1,1.23,13.24C361.17,140.89,364.52,139.77,367.92,138.85Z"/><path class="cls-1" d="M370.6,118.45,371,117l-7.3-24-4.62,13.2-1.49,13.09C361.92,119.18,366.26,118.89,370.6,118.45Z"/><path class="cls-38" d="M367.08,103.55c.91,2.87,1.82,5.75,2.69,8.64s1.75,5.77,2.61,8.66v.09c-.49,4-1.06,8.08-1.59,12.12s-1.14,8.06-1.76,12.09c.42-4.05.89-8.1,1.38-12.14s1-8.09,1.55-12.12V121c-.84-2.89-1.69-5.79-2.49-8.7S367.87,106.46,367.08,103.55Z"/><path class="cls-38" d="M369.83,121.56c-.59,2.56-1.16,5.12-1.77,7.67v0c.05,3.24.07,6.49.07,9.73s0,6.49,0,9.73l-.26-.2a3.21,3.21,0,0,1,1.79.09,2.31,2.31,0,0,1,1.3,1.23,5,5,0,0,1,.45,1.69,3.11,3.11,0,0,1-.3,1.76l0,0-.06,0a7.47,7.47,0,0,0-2,1.21,13,13,0,0,0-1.64,1.68,15.38,15.38,0,0,0-1.35,1.95,20.11,20.11,0,0,0-1.06,2.13,22.35,22.35,0,0,1,1-2.18,16.3,16.3,0,0,1,1.27-2,12.93,12.93,0,0,1,1.63-1.76,7.9,7.9,0,0,1,2-1.31l-.08.06a2.74,2.74,0,0,0,.21-1.54,4.9,4.9,0,0,0-.44-1.56,2,2,0,0,0-1.09-1,2.88,2.88,0,0,0-1.54-.06l-.26.07v-.27c0-3.24,0-6.49,0-9.73s0-6.49.07-9.73v0C368.44,126.62,369.15,124.09,369.83,121.56Z"/><path class="cls-38" d="M408.55,107.07c-.21,4.1-.46,8.2-.72,12.29v-.06l2.49,7.92,2.44,7.93,2.39,7.95c.8,2.65,1.55,5.32,2.32,8-.86-2.63-1.75-5.25-2.59-7.89l-2.51-7.92-2.47-7.92-2.42-7.94v-.07Q408,113.21,408.55,107.07Z"/><path class="cls-38" d="M410.77,111.17l2.29,10.35,2.22,10.37,2.16,10.38,2.12,10.38,0,.13-.12.07a3.07,3.07,0,0,0-1.31,2.26,4.63,4.63,0,0,0,.09,1.38l.24,1.41,1,5.65-.1-.05a13.24,13.24,0,0,1,2.11-.75,7.54,7.54,0,0,1,2.21-.29,10.42,10.42,0,0,0-4.26,1.16l-.08,0,0-.09-1.09-5.63-.26-1.41a5,5,0,0,1-.13-1.45,3.42,3.42,0,0,1,1.45-2.55l-.08.2L417,142.36,414.87,132l-2.08-10.39Z"/><path class="cls-8" d="M370.67,68.13c-1.9,1.6-4,3.42-4.2,5.9-.15,1.78.77,3.58.37,5.33s-2,3-3.38,4.18a13.85,13.85,0,0,0-3.76,5.6,15.87,15.87,0,0,0-.34,7.72,9.58,9.58,0,0,0,1.26,3.69,9,9,0,0,0,2.51,2.4,11.84,11.84,0,0,0,4.27,2c4.41.9,8.9-1.86,11.48-5.55a23.88,23.88,0,0,0,3.87-11.54,61.56,61.56,0,0,0-.47-12.28A20.09,20.09,0,0,0,381,69.77c-.85-2-3.3-5.73-5.46-6.48-1.44-.5-1.42.84-2.08,1.87A14,14,0,0,1,370.67,68.13Z"/><path class="cls-8" d="M400.65,68.13c1.9,1.6,4,3.42,4.21,5.9.14,1.78-.78,3.58-.38,5.33s2,3,3.38,4.18a13.85,13.85,0,0,1,3.76,5.6,15.87,15.87,0,0,1,.34,7.72,9.58,9.58,0,0,1-1.26,3.69,9,9,0,0,1-2.51,2.4,11.87,11.87,0,0,1-4.26,2c-4.42.9-8.91-1.86-11.49-5.55a23.76,23.76,0,0,1-3.86-11.54A60.82,60.82,0,0,1,389,75.53a20.09,20.09,0,0,1,1.24-5.76c.85-2,3.3-5.73,5.46-6.48,1.44-.5,1.42.84,2.08,1.87A14,14,0,0,0,400.65,68.13Z"/><path class="cls-4" d="M399.74,53.53a13.7,13.7,0,1,0-26.69,4.3h0s2.45,11.48,5.6,14.78a11.35,11.35,0,0,0,7.4,3.34,11.17,11.17,0,0,0,7.39-3.34c2.82-3,5.61-14.78,5.61-14.78h0A13.64,13.64,0,0,0,399.74,53.53Z"/><path class="cls-4" d="M398.81,58.16s1.18-3,2.95-2.17,2.22,6.83-4.54,8.42Z"/><path class="cls-6" d="M399.07,62.46a.92.92,0,0,1-.19-.56q0-.3,0-.6a7,7,0,0,1,.11-1.21,4.71,4.71,0,0,1,.35-1.16,2.24,2.24,0,0,1,.77-1,1.59,1.59,0,0,1,1.25-.24,1.17,1.17,0,0,1,.85.92,1.43,1.43,0,0,1-.3,1.2,1.8,1.8,0,0,1-1.05.57A1.49,1.49,0,0,0,402,58.68a1,1,0,0,0-.71-.73,1.34,1.34,0,0,0-1,.22,3.19,3.19,0,0,0-1.08,2A7.56,7.56,0,0,0,399,61.3c0,.2,0,.4,0,.59A.92.92,0,0,0,399.07,62.46Z"/><path class="cls-4" d="M373.59,58.16s-1.17-3-2.94-2.17-2.22,6.83,4.53,8.42Z"/><path class="cls-6" d="M373.33,62.46a.87.87,0,0,0,.2-.56q0-.3,0-.6a7,7,0,0,0-.11-1.21,4.71,4.71,0,0,0-.35-1.16,2.26,2.26,0,0,0-.78-1,1.56,1.56,0,0,0-1.24-.24,1.17,1.17,0,0,0-.85.92,1.36,1.36,0,0,0,.3,1.2,1.74,1.74,0,0,0,1.05.57,1.48,1.48,0,0,1-1.15-1.72,1,1,0,0,1,.71-.73,1.36,1.36,0,0,1,1,.22,3.19,3.19,0,0,1,1.08,2,7.56,7.56,0,0,1,.18,1.16c0,.2,0,.4,0,.59A.86.86,0,0,1,373.33,62.46Z"/><path class="cls-8" d="M373.05,57.83s10.39-.09,12.6-9c0,0,4.32,9.12,13.57,8.4,0,0,5.14-19.27-13-18.25C366.34,40.1,373.05,57.83,373.05,57.83Z"/><path class="cls-9" d="M384.84,69.32a1.48,1.48,0,0,1,1.47.27c.14-.17.54-.48,1.46-.34a16.53,16.53,0,0,0,3.69-.21,7.43,7.43,0,0,1-5.1,2.49v0a7.41,7.41,0,0,1-5.22-2.23A16.75,16.75,0,0,0,384.84,69.32Z"/><path class="cls-37" d="M386.35,70.6v0a10.69,10.69,0,0,0,5-1.41,7.39,7.39,0,0,1-5,2.34v0a7.4,7.4,0,0,1-5.14-2.14A10.81,10.81,0,0,0,386.35,70.6Z"/><path class="cls-9" d="M385.8,56.42a25.8,25.8,0,0,1-.28,4.31,10.44,10.44,0,0,1-.55,2.08,3.93,3.93,0,0,1-1.14,1.75l-.07,0,.05.06a3.69,3.69,0,0,0,3.73,1.13,3.81,3.81,0,0,1-3.61-1.22v.11a4.18,4.18,0,0,0,1.24-1.81,10.4,10.4,0,0,0,.51-2.12A19.11,19.11,0,0,0,385.8,56.42Z"/><circle class="cls-1" cx="378.54" cy="58.4" r="6.45"/><circle class="cls-1" cx="393.32" cy="58.4" r="6.45"/><path class="cls-1" d="M387.51,58.12a2.09,2.09,0,0,0-1.57-.84,2.39,2.39,0,0,0-1.52.82l-.71-.58a3.32,3.32,0,0,1,2.2-1.15,3,3,0,0,1,2.28,1.14Z"/><path class="cls-20" d="M640,54.29a9.59,9.59,0,0,0,4.74,8.86c2,1.2,4.25,1.8,6,3.23,3.51,2.79,4.06,8.28,2,12.26s-6.24,6.53-10.57,7.72a25.11,25.11,0,0,1-14.86-.49,21.36,21.36,0,0,1-13.46,3.91,8,8,0,0,1-4-1.09c-2.12-1.39-2.86-4.25-2.42-6.74a17.73,17.73,0,0,1,3.28-6.78c1-1.45,2.06-3.12,1.63-4.82-.29-1.17-1.24-2.06-1.74-3.16-1-2.31.09-5,1.2-7.24l2.55-5.25a9,9,0,0,1,1.91-2.9,7.93,7.93,0,0,1,4.7-1.63A34.38,34.38,0,0,1,640,54.29Z"/><path class="cls-38" d="M641.73,139.54l9.77,20.05-7.73,55.32s.38,17.9-8.76,42.52h-6.4l-.66-49.2,1.4-39.55h-3.16l-8.09,45.17s4.16,15.8,0,58.38h-6.39l-7-59.08V163.52l8.57-24Z"/><polygon class="cls-33" points="641.73 139.54 613.31 139.54 604.74 163.52 604.74 178.3 625.5 172.5 626.19 168.68 629.35 168.68 629.25 171.46 650.68 165.47 651.5 159.59 641.73 139.54"/><path class="cls-39" d="M609.78,268.89l9.57-.87s1.49,15.7.93,20.16-4.8,15.95-7.33,15.95c-3.76,0,.48-15.95.48-15.95Z"/><path class="cls-39" d="M627.36,255.17l9.65.53s-2.56,13.22-3.12,17.68-7.1,14.8-9.62,14.8c-2.24,0,2.37-15.43,2.37-15.43Z"/><path class="cls-17" d="M607.75,92.71c8.65.66,17.34.51,26,.65,7.39.11,14.78.71,22.18.82l2-6.33L639,76.44l-1.23-14-15.49,7.78,3,9.06L606.79,84.6Z"/><polygon class="cls-19" points="638.77 73.72 637.78 62.41 622.29 70.19 624.94 78.08 638.77 73.72"/><path class="cls-15" d="M636.51,90.08A181.83,181.83,0,0,1,607.2,88l6.11,51.52h28.42l15.55-49.61C650.36,90.13,643.43,90.11,636.51,90.08Z"/><path class="cls-38" d="M656,94l.88-2.81a268.27,268.27,0,0,1-49.33,0L607.9,94A271.36,271.36,0,0,0,656,94Z"/><path class="cls-38" d="M654.13,100l.87-2.78a273,273,0,0,1-46.72-.06l.32,2.74A275.77,275.77,0,0,0,654.13,100Z"/><path class="cls-38" d="M652.25,106l.87-2.78a280.37,280.37,0,0,1-44.14-.14l.32,2.74A282.48,282.48,0,0,0,652.25,106Z"/><path class="cls-38" d="M650.37,112l.87-2.78a285.41,285.41,0,0,1-41.56-.23l.32,2.74A289.33,289.33,0,0,0,650.37,112Z"/><path class="cls-38" d="M648.51,117.92l.86-2.76a293.25,293.25,0,0,1-39-.29l.32,2.74A296.3,296.3,0,0,0,648.51,117.92Z"/><path class="cls-38" d="M646.64,123.87l.87-2.76a299.2,299.2,0,0,1-36.43-.33l.33,2.74A300.08,300.08,0,0,0,646.64,123.87Z"/><path class="cls-38" d="M644.78,129.81l.86-2.75a303.6,303.6,0,0,1-33.86-.37l.33,2.74A307,307,0,0,0,644.78,129.81Z"/><path class="cls-38" d="M642.93,135.71l.86-2.73a311.44,311.44,0,0,1-31.31-.39l.33,2.73Q627.86,136.25,642.93,135.71Z"/><path class="cls-40" d="M643,78.81l19.5,9-9.75,44.57L660,193.79S647.6,211.08,634.69,215l2.2-79.87S644.38,92.17,643,78.81Z"/><path class="cls-13" d="M654.07,90l-3.62-2L655,86.1l-4.57-3.81L643,78.81c1.43,13.36-6.06,56.29-6.06,56.29Z"/><polygon class="cls-40" points="662.45 87.85 667.03 126.95 653.9 126.95 662.45 87.85"/><path class="cls-13" d="M648.28,153l31-3.14s2.26,35,4.14,40.88l-26.17,8-13.48-3.9Z"/><path class="cls-41" d="M651.5,154c1.07,7.44,2,14.89,3,22.33s1.91,14.9,2.77,22.35c-1.06-7.43-2-14.88-3-22.32S652.37,161.48,651.5,154Z"/><path class="cls-41" d="M644.54,193.92c2.31-.35,4.63-.61,7-.88a.12.12,0,0,1,.09,0c1.64,1.54,3.28,3.06,4.86,4.66-1.71-1.46-3.36-3-5-4.49l.09,0C649.19,193.52,646.87,193.76,644.54,193.92Z"/><path class="cls-41" d="M651.5,192.4c-.27-5.9-.41-11.8-.62-17.7s-.32-11.8-.39-17.71c.27,5.9.41,11.8.62,17.7S651.43,186.49,651.5,192.4Z"/><path class="cls-41" d="M648.28,153c-.65,7-1.42,13.94-2.12,20.92s-1.51,13.94-2.36,20.9c.65-7,1.42-14,2.12-20.93S647.43,159.94,648.28,153Z"/><path class="cls-41" d="M657.28,195.44c4.25-1.27,8.53-2.42,12.79-3.64s8.55-2.34,12.85-3.42c-4.25,1.28-8.53,2.43-12.79,3.64S661.58,194.36,657.28,195.44Z"/><path class="cls-41" d="M657.28,197.28c4.28-1.4,8.6-2.68,12.89-4s8.63-2.58,13-3.79c-4.28,1.4-8.59,2.68-12.89,4S661.62,196.07,657.28,197.28Z"/><path class="cls-39" d="M673.86,151.76c-1.67-34.44-13.7-31.74-13.7-31.74-10.77.85-6.51,26.47-5.08,33.76a1.64,1.64,0,0,0-.5,1.19,1.69,1.69,0,1,0,2.32-1.56c-1.38-7-5.54-31.45,3.57-31.73,9.29-.29,11.27,24.19,11.61,30.3a1.69,1.69,0,1,0,1.78-.22Z"/><path class="cls-41" d="M652.3,115.09s-.54-7.11,8.56-5.7l.3,7.66L656.58,120l-3.25-2A3.5,3.5,0,0,1,652.3,115.09Z"/><path class="cls-17" d="M660.47,112.36l-4.35-11.81-7.55-7.76L644.5,92l-1.9,1.23s.38,1.23,2,.75l2.27.67,3.21,3.21L644.78,95l-3,1.61-.56,2.55s1.7.38,2.17-1l1.7-.66,3,3.13-4.35-1s-3-.35-3.12,1,6.52,3.39,6.52,3.39.27,1.23-1.19.76-3.35-1-3.35-1l-1.51-1a1.55,1.55,0,0,0,.26,2.46,30.24,30.24,0,0,0,5.13,2.74l3.92,4.07,4.21,1.89,1.8,5.29,4.06-2.56Z"/><path class="cls-40" d="M652.3,115.09s1.54,22.78,7.06,23,15.55-3.35,1.5-28.66c0,0-.36,8.45-4.52,8.67S652.3,115.09,652.3,115.09Z"/><path class="cls-41" d="M652.58,118.15c.25,2.28.57,4.57,1,6.83a57,57,0,0,0,1.52,6.73,23.07,23.07,0,0,0,1.2,3.22,6.45,6.45,0,0,0,2,2.68,2.58,2.58,0,0,0,1.6.35,12.08,12.08,0,0,0,1.7-.16,8.06,8.06,0,0,0,3.16-1.21,6.5,6.5,0,0,0,2.23-2.51,9.07,9.07,0,0,0,.87-3.28,20.36,20.36,0,0,0-.76-6.8,65.75,65.75,0,0,0-5.23-12.75A61.25,61.25,0,0,1,667.25,124a20.93,20.93,0,0,1,.81,6.86,9.4,9.4,0,0,1-.88,3.36,6.78,6.78,0,0,1-2.29,2.61,8.44,8.44,0,0,1-3.25,1.22,12.77,12.77,0,0,1-1.74.15,2.77,2.77,0,0,1-1.7-.39,6.63,6.63,0,0,1-2.09-2.77,22.18,22.18,0,0,1-1.19-3.25A75.72,75.72,0,0,1,652.58,118.15Z"/><path class="cls-41" d="M660.86,109.39a18.12,18.12,0,0,1-.56,4,8.63,8.63,0,0,1-1.76,3.67,4.26,4.26,0,0,1-.8.66,3.23,3.23,0,0,1-1,.34,5,5,0,0,1-2-.07,3.24,3.24,0,0,1-1.77-1,3,3,0,0,1-.64-1.91,3,3,0,0,0,.73,1.84,3.11,3.11,0,0,0,1.71.93,3.62,3.62,0,0,0,3.63-.94,8.4,8.4,0,0,0,1.78-3.55A24,24,0,0,0,660.86,109.39Z"/><path class="cls-40" d="M619.66,80.89l-17.13,4,2.21,54.65-6.08,64.82s2.26,7.29,8.54,9.12l12.46-76.38S623.11,96,619.66,80.89Z"/><path class="cls-13" d="M615.64,85.63,609.92,89s9.53,22.36,9.82,47c.51-6.46,3-41.45-.08-55.17l-8,1.88Z"/><path class="cls-41" d="M602.53,84.89c.47,9.1.81,18.21,1.22,27.32s.72,18.22,1,27.33c-.47-9.11-.81-18.21-1.22-27.32S602.8,94,602.53,84.89Z"/><path class="cls-41" d="M588.32,136.85s-2.83-1.35-1.44-8.27a9.23,9.23,0,0,1,7.51-7.64l4.27,6.49-3.59,6.82S590.24,139,588.32,136.85Z"/><polygon class="cls-17" points="576.81 130.99 583.52 133.03 590.77 127.62 595.74 125.91 595.29 122.44 592.68 120.8 591.37 120.61 579.02 127.76 576.81 130.99"/><path class="cls-40" d="M602.53,84.89l-7.24,33.87-3.92,1.85s3.31,1.56,3.21,3.62-.59,14.19-6.26,12.62c0,0,1.1,1.18,3.48.14,3.18-1.38,12.43-7,12.43-7v-3Z"/><path class="cls-42" d="M575.23,107.81c-.53-1.51-2-4.83-4.67-5.67a1.11,1.11,0,0,1-.6-1.64h0a1.1,1.1,0,0,1,.92-.54A10,10,0,0,1,581,107.1a1.12,1.12,0,0,1-1.07,1.47h-3.63A1.11,1.11,0,0,1,575.23,107.81Z"/><path class="cls-43" d="M575.23,107.81a1.11,1.11,0,0,0,1,.76h3.63A1.12,1.12,0,0,0,581,107.1a11.75,11.75,0,0,0-1.6-3.13l-5.06,1.76A16,16,0,0,1,575.23,107.81Z"/><path class="cls-40" d="M577.3,108s1.91-2.14,4.74,0c0,0,2.36-1.74,4.36,0,0,0,3.74-.09,5.11,6.14s.46,12.27-3.8,15.33c0,0-2.81,3.28-5.54.91a5,5,0,0,1-5.75,0s-2,1.17-3.49,0a3.71,3.71,0,0,1-4.1,0s-3.85-1.51-4.84-5.1-2.79-11.55,3.37-16.47a4.52,4.52,0,0,1,5.16-.81S574.57,105.66,577.3,108Z"/><path class="cls-44" d="M592,117.57l-28.42,6.22c.13.55.26,1,.38,1.48,1,3.59,4.84,5.1,4.84,5.1a3.71,3.71,0,0,0,4.1,0c1.46,1.17,3.49,0,3.49,0a5,5,0,0,0,5.75,0c2.73,2.37,5.54-.91,5.54-.91C591.18,127,592.42,122.5,592,117.57Z"/><path class="cls-41" d="M586.4,108a19.19,19.19,0,0,1,2.18,5.1,24.74,24.74,0,0,1,.93,5.48,27.39,27.39,0,0,1-.93,8.26c-.24.89-.58,1.75-.87,2.63a34.74,34.74,0,0,0,1.31-5.37,26.08,26.08,0,0,0,.26-5.51,25.15,25.15,0,0,0-.85-5.45A22.28,22.28,0,0,0,586.4,108Z"/><path class="cls-41" d="M582,108a32.7,32.7,0,0,1,1.35,5.52,39.84,39.84,0,0,1,.52,5.67,33.64,33.64,0,0,1-.39,5.67,29.08,29.08,0,0,1-1.35,5.52c.23-.92.54-1.82.7-2.75l.29-1.39.21-1.4a34.42,34.42,0,0,0,.31-5.65,41.1,41.1,0,0,0-.44-5.65A44.12,44.12,0,0,0,582,108Z"/><path class="cls-41" d="M577.3,108c-.52,1.83-.93,3.68-1.28,5.54a50.69,50.69,0,0,0-.73,5.63,38.19,38.19,0,0,0,0,5.66,25.13,25.13,0,0,0,1.15,5.55,21,21,0,0,1-1.3-5.53,37.41,37.41,0,0,1-.06-5.7,50.72,50.72,0,0,1,.81-5.64A42.07,42.07,0,0,1,577.3,108Z"/><path class="cls-41" d="M572.52,108a36,36,0,0,0-1.52,5.56,32.24,32.24,0,0,0-.58,5.71A23.92,23.92,0,0,0,571,125l.34,1.39c.14.46.32.91.48,1.36l.23.68c.09.22.2.44.3.65l.62,1.31A19.75,19.75,0,0,1,570.8,125a24.64,24.64,0,0,1-.61-5.75A31.79,31.79,0,0,1,572.52,108Z"/><path class="cls-41" d="M568.83,130.37a13.7,13.7,0,0,1-2.47-5,22.54,22.54,0,0,1-.81-5.54,31.63,31.63,0,0,1,.45-5.59c.16-.93.38-1.84.57-2.75l.79-2.69-.68,2.72c-.17.91-.38,1.82-.53,2.74a32.34,32.34,0,0,0-.37,5.56,22.77,22.77,0,0,0,.73,5.51,17.88,17.88,0,0,0,.93,2.63A10.94,10.94,0,0,0,568.83,130.37Z"/><path class="cls-17" d="M581.38,129.35l-1.22-2.08c-1.1-2.18-2.67-1.69-2.67-1.69L579,130l.09,0-.09,0-1.57-1.83c-1.46-2-2.93-1.19-2.93-1.19l1.5,2.64-.92-.33-.76-1.12a2.54,2.54,0,0,0-3.21-.59l3.41,3.75,9,1.72-.93-.52.13,0,.8.54,1.38-1.48Z"/><path class="cls-17" d="M641.08,50.33A13.91,13.91,0,1,0,614.44,57h0s3.47,11.4,7,14.48a10,10,0,0,0,15-1.27c2.59-3.27,4.4-15.45,4.4-15.45h0A14.09,14.09,0,0,0,641.08,50.33Z"/><path class="cls-17" d="M640.29,55.57s.92-3,2.74-2.4,2.77,6.58-3.79,8.72Z"/><path class="cls-19" d="M640.91,59.81a.89.89,0,0,1-.24-.54c0-.2-.06-.4-.08-.59a7,7,0,0,1,0-1.21,4.44,4.44,0,0,1,.25-1.18,2.3,2.3,0,0,1,.68-1,1.57,1.57,0,0,1,1.22-.33,1.18,1.18,0,0,1,.92.84,1.41,1.41,0,0,1-.2,1.2,1.74,1.74,0,0,1-1,.66,1.47,1.47,0,0,0,1-1.8,1,1,0,0,0-.76-.66,1.38,1.38,0,0,0-1,.3,3.23,3.23,0,0,0-.9,2,7.58,7.58,0,0,0-.08,1.17c0,.19,0,.39,0,.59A1,1,0,0,0,640.91,59.81Z"/><path class="cls-20" d="M624.62,45.12s2.91,8.25,16,10.63c0,0,5.51-15-11.37-18.41a13.66,13.66,0,0,0-12.46,3.58A14,14,0,0,0,614,55.71S622,55.92,624.62,45.12Z"/><path class="cls-20" d="M617,58.43s2.57-2,5.07-1.6c0,0,.84-.16.88-.77s-.9-.72-.9-.72A6,6,0,0,0,617,58.43Z"/><path class="cls-7" d="M623.38,60.25a3.43,3.43,0,0,0-3-1.13,4.87,4.87,0,0,0-2.62.84A4.49,4.49,0,0,0,623.38,60.25Z"/><path class="cls-20" d="M620.49,61.16A4.83,4.83,0,0,1,617.66,60l-.08-.08.08-.07h0a4.23,4.23,0,0,1,1.45-.59,8.68,8.68,0,0,1,1.53-.22,3.46,3.46,0,0,1,2.73,1.2A4.75,4.75,0,0,1,620.49,61.16Zm.16-2a6.17,6.17,0,0,0-2.85.86h0v-.14a4.57,4.57,0,0,0,2.7,1.19,4.67,4.67,0,0,0,2.88-.81A3.41,3.41,0,0,0,620.65,59.15Z"/><circle class="cls-20" cx="620.65" cy="60.13" r="1.02"/><path class="cls-20" d="M618.34,59.52a1.79,1.79,0,0,1-1-.45,1.89,1.89,0,0,0,.9.64Z"/><path class="cls-20" d="M618.63,59.43a1.24,1.24,0,0,1-.63-.53,1.33,1.33,0,0,0,.54.7Z"/><path class="cls-20" d="M618.78,60.62a.49.49,0,0,0-.18.49.39.39,0,0,1,.27-.32Z"/><path class="cls-20" d="M619.14,60.79a.52.52,0,0,0-.13.45.45.45,0,0,1,.25-.3Z"/><path class="cls-20" d="M619.48,60.93a.72.72,0,0,0,0,.46.61.61,0,0,1,.17-.36Z"/><path class="cls-20" d="M618.08,59.63a1.41,1.41,0,0,1-1-.46,1.48,1.48,0,0,0,1,.65Z"/><path class="cls-20" d="M636.38,54.5s-3.14-.84-5.29.5c0,0-.84.18-1.11-.37s.55-1,.55-1A6,6,0,0,1,636.38,54.5Z"/><path class="cls-7" d="M631.21,58.66a3.38,3.38,0,0,1,2.34-2.21,4.84,4.84,0,0,1,2.74-.25A4.49,4.49,0,0,1,631.21,58.66Z"/><path class="cls-20" d="M634.17,58.29a4.64,4.64,0,0,0,2-2.15l0,.13h0a6.16,6.16,0,0,0-3,.32,3.36,3.36,0,0,0-2.08,2.07A4.63,4.63,0,0,0,634.17,58.29Zm-.92-1.79a7.91,7.91,0,0,1,1.5-.4,4.3,4.3,0,0,1,1.56,0h0l.11,0,0,.1a4.73,4.73,0,0,1-2.17,2.16,4.63,4.63,0,0,1-3,.29A3.39,3.39,0,0,1,633.25,56.5Z"/><circle class="cls-20" cx="633.67" cy="57.49" r="1.02"/><path class="cls-20" d="M635.68,56.18a1.84,1.84,0,0,0,.58-.93,1.69,1.69,0,0,1-.7.77Z"/><path class="cls-20" d="M635.41,56.18a1.39,1.39,0,0,0,.23-.85,1.39,1.39,0,0,1-.38.73Z"/><path class="cls-20" d="M635.56,57.41a.39.39,0,0,1,.38.18.5.5,0,0,0-.35-.38Z"/><path class="cls-20" d="M635.27,57.69a.44.44,0,0,1,.34.19.51.51,0,0,0-.29-.37Z"/><path class="cls-20" d="M634.94,57.93a.68.68,0,0,1,.3.26.76.76,0,0,0-.18-.41Z"/><path class="cls-20" d="M635.93,56.2a1.5,1.5,0,0,0,.69-1,1.42,1.42,0,0,1-.78.83Z"/><path class="cls-13" d="M627.79,68.22a1.42,1.42,0,0,1,1.44,0c.11-.19.43-.55,1.33-.57a16.46,16.46,0,0,0,3.49-.82,7.19,7.19,0,0,1-4.44,3.23l0-.09v.09a7.18,7.18,0,0,1-5.34-1.25A16.36,16.36,0,0,0,627.79,68.22Z"/><path class="cls-40" d="M629.44,69.18v-.07l0,.07A10.36,10.36,0,0,0,634,67a7.2,7.2,0,0,1-4.34,3.07l0-.09v.09a7.17,7.17,0,0,1-5.25-1.18A10.24,10.24,0,0,0,629.44,69.18Z"/><path class="cls-20" d="M626.53,55.78a24.18,24.18,0,0,1,.46,4.15,11,11,0,0,1-.17,2.07,3.8,3.8,0,0,1-.8,1.86l0,.06.06,0a3.54,3.54,0,0,0,3.74.45,3.66,3.66,0,0,1-3.64-.55V64A4,4,0,0,0,627,62a9.84,9.84,0,0,0,.13-2.1A18.09,18.09,0,0,0,626.53,55.78Z"/></g></g></svg>